<svg width="90" height="90" viewBox="0 0 90 90" fill="none" xmlns="http://www.w3.org/2000/svg">
<circle cx="45" cy="45" r="45" fill="#FAB72A"/>
<g clip-path="url(#clip0_4_2009)">
<path d="M67.8423 52.3769C67.5527 51.4581 66.696 50.8369 65.7327 50.8473H64.7637V27.1777C64.7637 26.7692 64.4325 26.4381 64.024 26.4381H53.6686V22.7397C53.6686 22.3312 53.3374 22 52.9289 22H24.8212C24.4127 22 24.0815 22.3312 24.0815 22.7397V61.2028C24.0815 61.6113 24.4127 61.9425 24.8212 61.9425H49.2601L48.8903 63.0831C48.5905 63.9983 48.9152 65.0019 49.6943 65.5683C50.4729 66.1346 51.5279 66.1339 52.3062 65.5668L56.1834 62.7428C56.4452 62.5514 56.801 62.5514 57.0628 62.7428L60.9472 65.5683C61.7216 66.144 62.782 66.144 63.5567 65.5683C64.3444 65.0092 64.6723 63.9993 64.3628 63.0838L62.8777 58.5081C62.7802 58.2051 62.89 57.8735 63.1489 57.6886L67.0405 54.8632C67.8264 54.3016 68.1518 53.2917 67.8423 52.3769ZM63.2844 27.9174V50.8473H60.9248C60.8472 50.847 60.7699 50.8343 60.6962 50.8098C60.4734 50.7347 60.2986 50.5602 60.2231 50.3377L58.7361 45.7657C58.4367 44.8552 57.5865 44.2397 56.628 44.2397C55.6694 44.2397 54.8193 44.8552 54.5198 45.7657L53.6686 48.3791V41.2316H59.586C59.9945 41.2316 60.3256 40.9004 60.3256 40.4919C60.3256 40.0834 59.9945 39.7522 59.586 39.7522H53.6686V36.7935H59.586C59.9945 36.7935 60.3256 36.4623 60.3256 36.0538C60.3256 35.6454 59.9945 35.3142 59.586 35.3142H53.6686V32.3555H59.586C59.9945 32.3555 60.3256 32.0243 60.3256 31.6158C60.3256 31.2073 59.9945 30.8761 59.586 30.8761H53.6686V27.9174H63.2844ZM25.5609 60.4631V23.4794H52.1892V50.8473H47.5218C46.5593 50.8448 45.7048 51.4639 45.4065 52.3791C45.1085 53.2946 45.4346 54.298 46.214 54.8632L50.1042 57.6879C50.3649 57.8735 50.4751 58.2065 50.3765 58.511L49.7416 60.4631H25.5609ZM66.169 53.667L62.2785 56.4924C61.4991 57.0541 61.1722 58.0552 61.4706 58.9683L62.9575 63.5396C63.059 63.8448 62.9514 64.181 62.6909 64.3706C62.4309 64.5602 62.078 64.5595 61.8184 64.3692L57.9315 61.5416C57.151 60.98 56.0985 60.98 55.318 61.5416L51.4355 64.367C51.1761 64.5577 50.8229 64.5584 50.5625 64.3692C50.3021 64.1796 50.1941 63.8437 50.2956 63.5381L51.7818 58.969C52.0812 58.0545 51.754 57.0515 50.9732 56.4895L47.0855 53.6677C46.8233 53.4799 46.7132 53.144 46.8128 52.8374C46.9125 52.5308 47.1997 52.3242 47.5218 52.3267H52.3297C52.6378 52.3292 52.9426 52.2631 53.2218 52.1328L53.2359 52.1248L53.2493 52.1205C53.2597 52.1158 53.2669 52.1071 53.2774 52.1017C53.8286 51.8456 54.249 51.3725 54.4386 50.795L55.9255 46.2244C56.0252 45.921 56.3087 45.7155 56.628 45.7155C56.9476 45.7155 57.2311 45.921 57.3308 46.2244L58.8181 50.7986C59.1168 51.7095 59.9663 52.3256 60.9248 52.3267H65.7327C66.0549 52.3242 66.3417 52.5308 66.4413 52.837C66.5414 53.1433 66.4316 53.4788 66.1697 53.667H66.169Z" fill="#333333"/>
<path d="M30.7387 29.3968H47.0116C47.42 29.3968 47.7512 29.0656 47.7512 28.6571C47.7512 28.2486 47.42 27.9174 47.0116 27.9174H30.7387C30.3302 27.9174 29.999 28.2486 29.999 28.6571C29.999 29.0656 30.3302 29.3968 30.7387 29.3968Z" fill="#333333"/>
<path d="M30.7387 35.3141H47.0116C47.42 35.3141 47.7512 34.9829 47.7512 34.5745C47.7512 34.166 47.42 33.8348 47.0116 33.8348H30.7387C30.3302 33.8348 29.999 34.166 29.999 34.5745C29.999 34.9829 30.3302 35.3141 30.7387 35.3141Z" fill="#333333"/>
<path d="M30.7387 41.2316H47.0116C47.42 41.2316 47.7512 40.9004 47.7512 40.4919C47.7512 40.0834 47.42 39.7522 47.0116 39.7522H30.7387C30.3302 39.7522 29.999 40.0834 29.999 40.4919C29.999 40.9004 30.3302 41.2316 30.7387 41.2316Z" fill="#333333"/>
<path d="M47.7512 46.4093C47.7512 46.0008 47.42 45.6696 47.0116 45.6696H30.7387C30.3302 45.6696 29.999 46.0008 29.999 46.4093C29.999 46.8178 30.3302 47.149 30.7387 47.149H47.0116C47.42 47.149 47.7512 46.8178 47.7512 46.4093Z" fill="#333333"/>
</g>
<defs>
<clipPath id="clip0_4_2009">
<rect width="44" height="44" fill="white" transform="translate(24 22)"/>
</clipPath>
</defs>
</svg>
