<svg width="90" height="90" viewBox="0 0 90 90" fill="none" xmlns="http://www.w3.org/2000/svg">
<circle cx="45" cy="45" r="45" fill="#FAB72A"/>
<path d="M65.75 31H56V28C55.9974 25.9298 54.3202 24.2526 52.25 24.25H38.75C36.6798 24.2526 35.0026 25.9298 35 28V31H25.25C24.0074 31 23 32.0074 23 33.25V49.9448C23.0048 50.8962 23.6042 51.7426 24.5 52.0623V62.5C24.5 63.7426 25.5074 64.75 26.75 64.75H64.25C65.4926 64.75 66.5 63.7426 66.5 62.5V52.063C67.3958 51.7429 67.9956 50.8962 68 49.9448V33.25C68 32.0074 66.9926 31 65.75 31ZM36.5 28C36.5 26.7574 37.5074 25.75 38.75 25.75H52.25C53.4926 25.75 54.5 26.7574 54.5 28V31H53V28C53 27.5858 52.6642 27.25 52.25 27.25H38.75C38.3358 27.25 38 27.5858 38 28V31H36.5V28ZM51.5 31H39.5V28.75H51.5V31ZM65 62.5C65 62.9142 64.6642 63.25 64.25 63.25H26.75C26.3358 63.25 26 62.9142 26 62.5V52.3201L42.5 54.5957V56.5C42.5 57.7426 43.5074 58.75 44.75 58.75H46.25C47.4926 58.75 48.5 57.7426 48.5 56.5V54.5957L65 52.3201V62.5ZM47 56.5C47 56.9142 46.6642 57.25 46.25 57.25H44.75C44.3358 57.25 44 56.9142 44 56.5V52C44 51.5858 44.3358 51.25 44.75 51.25H46.25C46.6642 51.25 47 51.5858 47 52V56.5ZM66.5 49.9448C66.5004 50.3187 66.2253 50.6359 65.8551 50.6882L65.6471 50.7168L48.5 53.0814V52C48.5 50.7574 47.4926 49.75 46.25 49.75H44.75C43.5074 49.75 42.5 50.7574 42.5 52V53.0814L25.1456 50.6882C24.7754 50.6362 24.4996 50.3191 24.5 49.9448V33.25C24.5 32.8358 24.8358 32.5 25.25 32.5H65.75C66.1642 32.5 66.5 32.8358 66.5 33.25V49.9448Z" fill="#333333"/>
</svg>
