<svg width="90" height="90" viewBox="0 0 90 90" fill="none" xmlns="http://www.w3.org/2000/svg">
<circle cx="45" cy="45" r="45" fill="#FAB72A"/>
<g clip-path="url(#clip0_4_2008)">
<path d="M67 46.3667C66.9954 45.0649 66.283 43.8685 65.1401 43.2449C65.1719 43.2162 65.2076 43.1949 65.2384 43.1648C66.262 42.1391 66.5671 40.5976 66.0114 39.2595C65.4561 37.921 64.1491 37.0493 62.7 37.05H48.3667C47.9709 37.05 47.65 36.7291 47.65 36.3333V27.0167C47.6475 24.6427 45.724 22.7191 43.35 22.7167H41.9167C40.7293 22.7167 39.7667 23.6793 39.7667 24.8667V30.6C39.7625 34.1606 36.8773 37.0458 33.3167 37.05H31.1667V34.1833H24V35.6167H29.7333V62.85H24V64.2833H31.1667V59.3248L31.2297 59.3748C32.8831 60.6941 34.9348 61.4139 37.0498 61.4167H59.8333C60.7841 61.4177 61.696 61.0405 62.3683 60.3683C63.0405 59.696 63.4177 58.7841 63.4167 57.8333C63.4125 57.0274 63.1346 56.2471 62.6283 55.6203C64.3317 55.3149 65.5705 53.8308 65.5667 52.1C65.5639 51.2203 65.2349 50.3727 64.6435 49.7215C65.1348 49.5444 65.5824 49.2634 65.9551 48.8981C66.6245 48.2255 67 47.3153 67 46.3667ZM64.9417 47.8847C64.5368 48.2885 63.9885 48.516 63.4167 48.5167H53.3833C52.9876 48.5167 52.6667 48.8376 52.6667 49.2333C52.6667 49.6291 52.9876 49.95 53.3833 49.95H61.9833C63.1707 49.95 64.1333 50.9127 64.1333 52.1C64.1333 53.2873 63.1707 54.25 61.9833 54.25H53.3833C52.9876 54.25 52.6667 54.5709 52.6667 54.9667C52.6667 55.3624 52.9876 55.6833 53.3833 55.6833H59.8333C61.0207 55.6833 61.9833 56.646 61.9833 57.8333C61.9833 59.0207 61.0207 59.9833 59.8333 59.9833H37.0498C35.2602 59.9809 33.5245 59.3724 32.1255 58.2561L31.1667 57.4893V38.4833H33.3167C37.6685 38.4781 41.1947 34.9518 41.2 30.6V24.8667C41.2 24.4709 41.5209 24.15 41.9167 24.15H43.35C44.9331 24.15 46.2167 25.4336 46.2167 27.0167V36.3333C46.2167 37.5207 47.1793 38.4833 48.3667 38.4833H62.7C63.8873 38.4833 64.85 39.446 64.85 40.6333C64.85 41.8207 63.8873 42.7833 62.7 42.7833H53.3833C52.9876 42.7833 52.6667 43.1042 52.6667 43.5C52.6667 43.8958 52.9876 44.2167 53.3833 44.2167H63.4167C64.2863 44.2156 65.0705 44.7384 65.4043 45.5412C65.7381 46.3439 65.5555 47.2688 64.9417 47.8847Z" fill="#333333"/>
</g>
<defs>
<clipPath id="clip0_4_2008">
<rect width="43" height="43" fill="white" transform="translate(24 22)"/>
</clipPath>
</defs>
</svg>
