<svg width="14" height="11" viewBox="0 0 14 11" fill="none" xmlns="http://www.w3.org/2000/svg">
<path d="M11.8867 7.09668C12.9645 7.09668 13.8389 7.971 13.8389 9.04883C13.8387 10.1265 12.9644 11 11.8867 11C10.8091 10.9999 9.9357 10.1265 9.93555 9.04883C9.93555 8.75488 10.1738 8.5166 10.4678 8.5166C10.7616 8.51674 11 8.75496 11 9.04883C11.0002 9.53857 11.397 9.93548 11.8867 9.93555C12.3765 9.93555 12.7743 9.53862 12.7744 9.04883C12.7744 8.55891 12.3766 8.16113 11.8867 8.16113C11.5928 8.16106 11.3545 7.92282 11.3545 7.62891C11.3547 7.33514 11.5929 7.09675 11.8867 7.09668ZM7.62891 8.51562C7.92273 8.51564 8.16095 8.75407 8.16113 9.04785C8.16113 9.34179 7.92284 9.58006 7.62891 9.58008H0.532227C0.238284 9.58007 2.56975e-08 9.3418 0 9.04785C0.000184874 8.75406 0.238398 8.51564 0.532227 8.51562H7.62891ZM1.95117 0C2.24512 0 2.48339 0.238284 2.4834 0.532227C2.4834 0.826178 2.24512 1.06445 1.95117 1.06445C1.46157 1.06467 1.06467 1.46157 1.06445 1.95117C1.06445 2.44096 1.46144 2.83865 1.95117 2.83887C2.44109 2.83887 2.83887 2.44109 2.83887 1.95117C2.83908 1.6574 3.07728 1.41895 3.37109 1.41895C3.66482 1.41905 3.9031 1.65747 3.90332 1.95117C3.90332 3.029 3.029 3.90332 1.95117 3.90332C0.873533 3.9031 0 3.02886 0 1.95117C0.000216113 0.873666 0.873666 0.000216838 1.95117 0ZM13.3066 1.41992C13.6004 1.42017 13.8389 1.65835 13.8389 1.95215C13.8386 2.24574 13.6002 2.48412 13.3066 2.48438H6.20996C5.91616 2.48438 5.67797 2.2459 5.67773 1.95215C5.67773 1.6582 5.91601 1.41992 6.20996 1.41992H13.3066Z" fill="#333333"/>
</svg>
