<svg width="16" height="16" viewBox="0 0 16 16" fill="none" xmlns="http://www.w3.org/2000/svg">
<path d="M7.99985 15.9998C7.95985 15.9598 7.95985 15.9598 7.95985 15.9198C6.71985 13.9998 5.55985 12.0398 4.51985 9.99984C3.99985 9.03984 3.55985 8.07984 3.19985 7.07984C3.03985 6.63984 2.91985 6.19984 2.87985 5.75984C2.83985 5.39984 2.87985 5.07984 2.91985 4.71984C2.99985 3.91984 3.19985 3.11984 3.63985 2.43984C4.23985 1.35984 5.15985 0.679844 6.31985 0.319844C7.63985 -0.0801561 8.95985 -0.0401561 10.2399 0.519844C11.5998 1.07984 12.4798 2.15984 12.8799 3.59984C13.0799 4.23984 13.1198 4.83984 13.1198 5.51984C13.1198 5.99984 12.9998 6.43984 12.8398 6.87984C12.5198 7.87984 12.0398 8.87984 11.5598 9.79984C10.5598 11.7998 9.39985 13.6798 8.23985 15.5598C8.19985 15.7198 8.07985 15.8398 7.99985 15.9998ZM9.75985 5.27984C9.75985 4.27984 8.95985 3.51984 7.99985 3.51984C6.99985 3.51984 6.23985 4.31984 6.19985 5.27984C6.19985 6.27984 6.99985 7.07984 7.99985 7.07984C8.99985 7.07984 9.75985 6.27984 9.75985 5.27984Z" fill="white"/>
</svg>
