<svg viewBox="0 0 292 83" fill="none" xmlns="http://www.w3.org/2000/svg">
<path fill-rule="evenodd" clip-rule="evenodd" d="M290.786 37.7395C290.685 37.6384 290.786 37.6384 290.786 37.7395H288.155L279.454 55.2434H281.579L283.906 50.2856H289.369L289.774 55.2434H291.899H292L290.786 37.7395ZM284.816 48.3632L288.965 39.3584L289.268 48.3632H284.816Z" fill="white"/>
<path fill-rule="evenodd" clip-rule="evenodd" d="M280.668 41.3817C280.668 41.584 280.668 41.8875 280.567 42.0899C280.567 42.2923 280.466 42.5958 280.466 42.8993H278.442C278.543 42.4946 278.543 41.9887 278.543 41.584C278.543 40.9769 278.442 40.3699 278.037 39.864C277.633 39.3581 276.823 39.1557 276.115 39.1557C274.395 39.1557 273.383 40.3699 272.675 41.7864C272.068 43.1017 271.663 44.7205 271.36 46.137C271.259 46.9465 271.056 47.6547 270.854 48.4641C270.753 49.0712 270.651 49.7794 270.651 50.4877C270.651 51.1959 270.753 52.1065 271.056 52.8148C271.461 53.4219 272.169 53.7254 272.877 53.7254C273.99 53.7254 274.901 53.3207 275.508 52.3089C276.216 51.3983 276.621 49.8806 276.925 48.7677H278.847C278.442 50.3865 277.734 52.4101 276.621 53.7254C275.508 55.0407 274.092 55.5466 272.372 55.5466C271.056 55.5466 269.842 55.2431 269.033 54.1301C268.324 53.2195 268.122 51.9042 268.122 50.69C268.122 49.9818 268.223 49.2736 268.223 48.5653C268.324 47.7559 268.527 46.9465 268.628 46.137C268.931 44.8217 269.235 43.4052 269.842 42.0899C270.348 40.8758 271.056 39.5605 272.169 38.6498C273.282 37.6381 274.597 37.2334 276.115 37.2334C277.228 37.2334 278.341 37.5369 279.15 38.3463C280.466 39.2569 280.668 40.3699 280.668 41.3817Z" fill="white"/>
<path fill-rule="evenodd" clip-rule="evenodd" d="M261.444 39.5606L260.23 45.2266H266.604L266.301 46.9467H259.927L258.611 53.2197H265.39L265.087 54.9397H256.284H256.183L259.825 37.4359H268.628L268.324 39.1559H268.223L261.444 39.5606Z" fill="white"/>
<path fill-rule="evenodd" clip-rule="evenodd" d="M246.065 44.9233H252.642L254.159 37.6385H256.082L252.439 55.1423H250.517H250.416L252.136 46.7445H245.559L243.839 55.1423H241.917H241.816L245.458 37.6385H245.559H247.482L246.065 44.9233Z" fill="white"/>
<path fill-rule="evenodd" clip-rule="evenodd" d="M237.769 45.8335C238.376 46.0358 238.983 46.3394 239.489 46.9465C239.995 47.5535 240.197 48.3629 240.197 49.1724C240.197 49.5771 240.096 49.9818 240.096 50.3865C239.893 51.6006 239.286 52.7136 238.376 53.7254C237.06 55.0407 235.442 55.6478 233.62 55.6478C232.406 55.6478 231.091 55.4454 230.18 54.5348C229.472 53.7254 229.27 52.5112 229.27 51.3983C229.27 51.1959 229.27 51.0948 229.27 50.8924C229.27 50.5889 229.371 50.083 229.371 49.7794H229.472H231.394H231.496C231.394 50.2853 231.394 50.7912 231.394 51.1959C231.394 51.803 231.496 52.6124 232.002 53.1183C232.507 53.6242 233.418 53.7254 234.126 53.7254C235.34 53.7254 236.352 53.3207 237.06 52.4101C237.566 51.803 237.87 50.9936 238.072 50.1842C238.072 50.083 238.173 49.8806 238.173 49.7794C238.275 49.6783 238.275 49.4759 238.275 49.3747C238.275 48.7677 238.072 48.1606 237.769 47.6547C237.364 47.1488 236.757 46.9465 236.049 46.9465H234.227H234.126L234.43 45.2264H234.531H235.846C237.769 45.2264 238.882 44.2146 239.286 42.3934C239.286 42.2923 239.286 42.0899 239.286 41.9887C239.286 41.8876 239.286 41.6852 239.286 41.584C239.286 40.1675 238.477 39.5605 237.06 39.5605C236.251 39.5605 235.543 39.864 234.835 40.3699C234.126 40.9769 233.62 41.7864 233.418 42.697H233.317H231.394C231.9 41.2805 232.609 39.9652 233.823 39.0546C234.936 38.144 236.251 37.7392 237.668 37.7392C238.679 37.7392 239.792 37.9416 240.602 38.6498C241.31 39.2569 241.613 40.1675 241.613 41.1793C241.613 41.3817 241.613 41.4828 241.613 41.6852C241.512 41.7864 241.512 41.8876 241.512 41.9887C241.31 43.0005 240.905 44.0123 240.096 44.7205C239.286 45.1252 238.578 45.53 237.769 45.8335Z" fill="white"/>
<path fill-rule="evenodd" clip-rule="evenodd" d="M216.521 53.3211C216.622 53.0175 216.825 52.714 216.926 52.4105C217.128 52.1069 217.331 51.8034 217.432 51.4999L225.83 37.6385H225.931H228.764H228.865L225.223 55.1423H225.121H223.199H223.098L226.032 41.1797C226.133 40.5726 226.234 39.9656 226.336 39.3585C226.234 39.5608 226.133 39.7632 226.032 40.0667C225.83 40.4714 225.526 40.9773 225.324 41.3821L216.926 55.1423H214.093L217.735 37.6385H217.837H219.759H219.86L216.825 51.9046L216.521 53.3211Z" fill="white"/>
<path fill-rule="evenodd" clip-rule="evenodd" d="M213.992 37.6385H205.189C205.088 37.6385 205.088 37.6385 205.088 37.6385L201.547 55.1423H206.201C207.617 55.1423 209.135 54.8387 210.349 54.0293C211.563 53.1187 212.272 51.7022 212.575 50.1845C212.676 49.6787 212.676 49.1728 212.676 48.5657C212.676 47.3516 212.272 46.3398 211.26 45.7327C210.349 45.1256 208.933 45.0245 207.82 45.0245H205.594L206.707 39.4597H213.385L213.992 37.6385ZM206.909 46.9468C207.617 46.9468 208.933 46.9468 209.641 47.3516C210.349 47.6551 210.552 48.3633 210.552 49.1728C210.552 49.3751 210.552 49.4763 210.552 49.6787C210.552 49.881 210.45 50.0834 210.45 50.1845C210.248 51.0951 209.843 52.1069 209.034 52.714C208.225 53.2199 207.112 53.3211 206.201 53.3211H204.076L205.392 46.9468H206.909Z" fill="white"/>
<path fill-rule="evenodd" clip-rule="evenodd" d="M195.577 37.6385H190.923C189.507 37.6385 187.989 37.942 186.775 38.7514C185.561 39.662 184.852 41.0785 184.549 42.5962C184.448 43.1021 184.347 43.608 184.347 44.1139C184.347 44.9233 184.549 45.7327 185.055 46.3398C185.459 46.8457 186.168 47.2504 186.775 47.4527L181.311 55.0411H181.412H183.537H183.638L189.001 47.6551H191.429L189.911 54.9399H190.012H191.935C192.036 54.9399 192.036 54.9399 192.036 54.9399L195.577 37.6385C195.678 37.6385 195.678 37.6385 195.577 37.6385ZM191.834 45.9351H190.215C189.405 45.9351 188.292 45.9351 187.584 45.5304C186.876 45.2268 186.674 44.5186 186.674 43.8103C186.674 43.5068 186.674 43.1021 186.775 42.6974C186.977 41.7868 187.281 40.775 188.191 40.2691C189.001 39.7632 190.114 39.5608 191.125 39.5608H193.25L191.834 45.9351Z" fill="white"/>
<path fill-rule="evenodd" clip-rule="evenodd" d="M180.502 39.5605H174.734L173.318 46.4407C173.014 47.756 172.711 49.1725 172.306 50.4878C171.901 51.7019 171.497 53.0172 170.687 54.029C169.979 54.9396 169.068 55.5467 167.854 55.5467C167.45 55.5467 167.045 55.5467 166.741 55.4455C166.741 55.4455 166.741 55.4455 166.741 55.3443L167.045 53.6243C167.045 53.6243 167.045 53.6243 167.146 53.6243H167.247C167.45 53.7255 167.652 53.7255 167.955 53.7255C169.878 53.7255 171.294 46.7442 171.598 45.4289L173.217 37.8405H173.318H183.132H183.233L179.591 55.3443H177.264H177.163L180.502 39.5605Z" fill="white"/>
<path fill-rule="evenodd" clip-rule="evenodd" d="M166.235 53.3207H164.92L168.158 37.7392H168.057H158.748C158.647 37.7392 158.647 37.7392 158.647 37.7392L157.736 42.1911C157.332 44.3158 156.826 46.6429 156.016 48.6665C155.409 50.2853 154.6 52.0054 153.487 53.4219H152.374C152.273 53.4219 152.273 53.4219 152.273 53.4219L151.059 59.189H151.16H152.981L153.791 55.1419H163.706L162.897 59.189H164.718C164.819 59.189 164.819 59.189 164.819 59.189L166.033 53.4219V53.3207C166.337 53.3207 166.337 53.3207 166.235 53.3207ZM162.795 53.3207H155.814C157.635 50.5889 158.748 47.1488 159.456 44.0123L160.367 39.4593H165.628L162.795 53.3207Z" fill="white"/>
<path fill-rule="evenodd" clip-rule="evenodd" d="M241.715 13.4565C241.613 13.4565 241.715 13.4565 241.715 13.4565H239.084C238.983 13.4565 238.983 13.4565 238.983 13.4565L230.281 30.9603H230.383H232.507L234.835 26.0026H240.298L240.703 30.9603H242.828L241.715 13.4565ZM235.846 24.0802L239.995 15.0753L240.298 24.0802H235.846Z" fill="white"/>
<path fill-rule="evenodd" clip-rule="evenodd" d="M222.794 22.1581L230.888 13.3556H233.317L226.234 20.6404L229.876 30.7583H227.651C227.549 30.7583 227.549 30.7583 227.549 30.7583L224.716 22.2593L222.288 24.6876L220.973 30.7583H220.872H218.848L222.49 13.2544H222.592H224.514H224.615L222.794 22.1581Z" fill="white"/>
<path fill-rule="evenodd" clip-rule="evenodd" d="M206.707 29.1391C206.808 28.8356 207.01 28.532 207.112 28.2285C207.213 27.925 207.415 27.6214 207.617 27.3179L216.015 13.4565H216.116H218.949H219.051L215.408 30.9603H215.307H213.385L216.319 16.9977C216.42 16.3907 216.521 15.7836 216.723 15.1765C216.622 15.3789 216.521 15.5812 216.42 15.8848C216.218 16.2895 216.015 16.7954 215.712 17.2001L207.314 30.9603H207.213H204.38H204.279L207.921 13.4565H208.022H209.945H210.046L207.01 27.7226L206.707 29.1391Z" fill="white"/>
<path fill-rule="evenodd" clip-rule="evenodd" d="M194.161 20.7413H200.737L202.255 13.4565H202.356H204.279H204.38L200.737 30.9603H200.636H198.714H198.613L200.333 22.5625H193.756L192.036 30.9603H190.114L193.756 13.4565H193.857H195.78H195.881L194.161 20.7413Z" fill="white"/>
<path fill-rule="evenodd" clip-rule="evenodd" d="M182.323 21.9554L179.389 13.4565H179.49H181.615L183.841 20.1342L188.9 13.4565H189.001H191.125C191.227 13.4565 191.227 13.4565 191.227 13.4565L184.751 21.9554L187.584 30.9603H185.358C185.257 30.9603 185.257 30.9603 185.257 30.9603L183.132 23.7767L177.871 30.9603H177.77H175.645C175.544 30.9603 175.544 30.9603 175.544 30.9603L182.323 21.9554Z" fill="white"/>
<path fill-rule="evenodd" clip-rule="evenodd" d="M170.384 15.2779L169.17 20.9439H175.544H175.645L175.342 22.6639H175.241H168.866L167.551 28.9369H174.33H174.431L174.128 30.657H174.026H165.123H165.022L168.664 13.1532H168.765H177.568H177.669L177.264 15.2779H177.163H170.384Z" fill="white"/>
<path fill-rule="evenodd" clip-rule="evenodd" d="M161.885 15.2779L158.546 30.9605H158.445H156.522H156.421L159.659 15.3791H155.207H155.106L155.511 13.659H155.612H166.64H166.741L166.438 15.3791H166.337H161.885V15.2779Z" fill="white"/>
<path fill-rule="evenodd" clip-rule="evenodd" d="M134.769 82.1564H132.24H132.139V82.0553L141.852 34.198H141.953H144.482H144.584L134.769 82.1564Z" fill="white"/>
<path fill-rule="evenodd" clip-rule="evenodd" d="M132.746 67.3846H127.383L140.435 0H145.798L132.746 67.3846C132.847 67.3846 132.847 67.3846 132.746 67.3846Z" fill="#D51317"/>
<path fill-rule="evenodd" clip-rule="evenodd" d="M41.2807 16.8969H12.3437L0 63.0342C0 63.0342 -5.80454e-07 63.0342 0.101178 63.1353C0.101178 63.1353 0.101178 63.1353 0.202356 63.1353L9.91546 48.7681H19.4262L19.2238 51.4999H32.2758L35.0076 41.1797H33.7935C33.6923 41.1797 33.6923 41.1797 33.6923 41.1797L33.49 42.2926H28.1275L28.0263 41.4832H27.2169C26.8122 40.2691 26.5087 39.0549 26.2051 37.7396C26.104 37.0314 25.0922 32.4784 25.6992 31.9725L29.544 28.9371C29.544 28.9371 29.544 28.9371 29.544 28.836L29.2405 28.0265C29.2405 28.0265 29.2405 28.0265 29.1393 28.0265C28.9369 28.0265 28.7346 28.2289 28.5322 28.2289C27.7228 28.2289 27.0146 28.2289 26.2051 28.2289C25.9016 27.8242 25.6992 27.4195 26.2051 27.0148C27.2169 27.0148 28.2287 27.0148 29.2405 27.0148C29.6452 27.4195 30.0499 27.723 30.4546 28.2289C30.4546 28.2289 30.4546 28.2289 30.5558 28.2289L35.4123 23.8782L39.9654 23.7771L41.2807 16.8969C41.2807 16.9981 41.2807 16.9981 41.2807 16.8969ZM19.8309 42.3938H13.7602L21.045 31.3654L19.8309 42.3938Z" fill="#D51317"/>
<path fill-rule="evenodd" clip-rule="evenodd" d="M31.8711 33.9959H35.817C35.9182 33.9959 36.0194 34.0971 36.0194 34.1983V34.8054C36.0194 34.9066 35.9182 35.0077 35.817 35.0077H31.8711C31.7699 35.0077 31.6687 34.9066 31.6687 34.8054V34.1983C31.5675 34.0971 31.6687 33.9959 31.8711 33.9959Z" fill="#D51317"/>
<path fill-rule="evenodd" clip-rule="evenodd" d="M35.4123 24.6874C36.7276 24.6874 38.043 24.6874 39.2571 24.6874C39.1559 25.0921 39.0547 25.598 38.9536 26.0027H38.3465C38.1441 25.6991 37.1324 25.4968 36.7276 25.4968C36.1206 25.4968 35.6147 25.8003 35.1088 26.3062C34.8053 27.0145 34.9064 28.0262 34.1982 28.5321C33.2876 28.5321 32.2758 28.5321 31.3652 28.5321C31.3652 28.5321 31.3652 28.5321 31.3652 28.431C32.5793 27.2168 33.9958 26.0027 35.4123 24.6874C35.4123 24.6874 35.3112 24.6874 35.4123 24.6874Z" fill="#D51317"/>
<path fill-rule="evenodd" clip-rule="evenodd" d="M109.374 20.9439H105.225H105.124L105.63 17.2003H105.731H121.515H121.616L121.11 20.9439H121.009H116.759L112.105 51.4997H104.922L109.374 20.9439Z" fill="white"/>
<path fill-rule="evenodd" clip-rule="evenodd" d="M98.2439 17.0993C98.1427 16.9981 98.2439 16.9981 98.2439 17.0993H86.8107L77.8059 51.4999H84.7872L86.8107 42.3938H90.0484L89.4414 51.4999H89.5425H96.5238C96.625 51.4999 96.625 51.4999 96.625 51.4999L98.2439 17.0993ZM90.352 38.4479H87.7213L91.5661 21.45H91.7685L90.352 38.4479Z" fill="white"/>
<path fill-rule="evenodd" clip-rule="evenodd" d="M72.0388 20.9438L67.3846 51.4996H60.201L65.4622 17.099H79.1213L78.6154 20.8426H72.0388V20.9438Z" fill="white"/>
<path fill-rule="evenodd" clip-rule="evenodd" d="M56.6598 17.0993C56.6598 16.9981 56.6598 16.9981 56.6598 17.0993H45.2267L36.2218 51.4999H43.2031L45.2267 42.3938H48.4644L47.8573 51.4999H54.8386L56.6598 17.0993ZM48.8691 38.4479H46.2384L50.0832 21.45H50.2856L48.8691 38.4479Z" fill="white"/>
<path fill-rule="evenodd" clip-rule="evenodd" d="M134.769 82.1565H132.24L141.953 34.2993H144.482L134.769 82.1565Z" fill="white"/>
</svg>
