<svg width="32" height="45" viewBox="0 0 32 45" fill="none" xmlns="http://www.w3.org/2000/svg">
<g clip-path="url(#clip0_1_257)">
<path d="M5.017 32.142H2.037C1.017 32.142 0 32.971 0 33.988V43.152C0 44.172 1.017 45 2.036 45H5.016C6.036 45 6.865 44.171 6.865 43.152V39.501H12.935C13.315 40.836 14.544 41.816 15.999 41.816C17.455 41.816 18.685 40.836 19.064 39.501H25.134V43.152C25.134 44.172 25.964 45 26.983 45H29.964C30.983 45 31.999 44.171 31.999 43.152V33.988C31.999 32.969 30.982 32.141 29.964 32.141H26.983C25.964 32.141 25.135 32.97 25.135 33.988V37.764H19.064C18.762 36.705 17.927 35.87 16.868 35.571V21.115C18.22 20.625 19.185 19.011 19.185 17.041C19.185 15.071 18.219 13.457 16.868 12.967V9.58C17.928 9.28 18.764 8.445 19.064 7.387H25.135V11.011C25.135 12.03 25.964 12.858 26.983 12.858H29.964C30.983 12.858 31.999 12.03 31.999 11.011V1.848C31.999 0.828 30.982 0 29.964 0H26.983C25.964 0 25.135 0.828 25.135 1.848V5.65H19.064C18.684 4.316 17.455 3.336 16 3.336C14.544 3.336 13.314 4.316 12.936 5.65H6.865V1.848C6.865 0.828 6.035 0 5.017 0H2.037C1.017 0 0 0.828 0 1.848V11.011C0 12.03 1.017 12.858 2.036 12.858H5.016C6.036 12.858 6.865 12.03 6.865 11.011V7.387H12.936C13.237 8.446 14.072 9.28 15.131 9.58V12.967C13.779 13.457 12.814 15.071 12.814 17.041C12.814 19.011 13.78 20.625 15.131 21.115V35.571C14.071 35.872 13.236 36.707 12.936 37.764H6.865V33.988C6.865 32.971 6.036 32.142 5.017 32.142ZM26.874 33.988C26.874 33.927 26.924 33.878 26.984 33.878H29.965C30.026 33.878 30.075 33.928 30.075 33.988V43.152C30.075 43.214 30.025 43.263 29.965 43.263H26.984C26.923 43.263 26.874 43.213 26.874 43.152V33.988ZM26.874 1.848C26.874 1.785 26.924 1.737 26.984 1.737H29.965C30.026 1.737 30.075 1.786 30.075 1.848V11.011C30.075 11.073 30.025 11.121 29.965 11.121H26.984C26.923 11.121 26.874 11.072 26.874 11.163V2V1.848ZM5.127 11.163C5.127 11.072 5.077 11.121 5.017 11.121H2.037C1.975 11.121 1.926 11.072 1.926 11.011V1.848C1.926 1.786 1.976 1.737 2.037 1.737H5.017C5.078 1.737 5.127 1.787 5.127 2.001V11.163ZM14.553 6.519C14.553 5.721 15.202 5.073 16.001 5.073C16.799 5.073 17.448 5.721 17.448 6.519C17.448 7.317 16.799 7.966 16.001 7.966C15.202 7.966 14.553 7.316 14.553 6.519ZM16.001 14.549C16.686 14.549 17.448 15.572 17.448 17.041C17.448 18.51 16.685 19.533 16.001 19.533C15.315 19.533 14.553 18.51 14.553 17.041C14.553 15.572 15.315 14.549 16.001 14.549ZM16.001 37.187C16.799 37.187 17.448 37.836 17.448 38.633C17.448 39.431 16.799 40.08 16.001 40.08C15.202 40.08 14.553 39.431 14.553 38.633C14.553 37.835 15.202 37.187 16.001 37.187ZM5.127 43.152C5.127 43.214 5.077 43.263 5.017 43.263H2.037C1.975 43.263 1.926 43.213 1.926 43.152V33.988C1.926 33.927 1.976 33.878 2.037 33.878H5.017C5.078 33.878 5.127 33.928 5.127 33.988V43.152Z" fill="#FAB72A"/>
</g>
<defs>
<clipPath id="clip0_1_257">
<rect width="32" height="45" fill="white"/>
</clipPath>
</defs>
</svg>
