<svg width="32" height="45" viewBox="0 0 32 45" fill="none" xmlns="http://www.w3.org/2000/svg">
<g clip-path="url(#clip0_1_262)">
<path d="M16.868 32.033C18.22 31.543 19.185 29.929 19.185 27.959C19.185 25.989 18.219 24.375 16.868 23.885L16.868 9.42896C17.928 9.12796 18.763 8.29296 19.063 7.23596L25.135 7.23596L25.135 11.012C25.135 12.03 25.964 12.859 26.984 12.859L29.964 12.859C30.984 12.859 32 12.03 32 11.012L32 1.84796C32 0.827957 30.983 -4.20506e-05 29.964 -4.21397e-05L26.984 -4.24002e-05C25.964 -4.24894e-05 25.135 0.828956 25.135 1.84796L25.135 5.49896L19.065 5.49896C18.685 4.16396 17.456 3.18395 16.001 3.18395C14.545 3.18395 13.315 4.16396 12.936 5.49896L6.866 5.49896L6.866 1.84796C6.866 0.827955 6.036 -4.42315e-05 5.017 -4.43206e-05L2.036 -4.45812e-05C1.016 -4.46704e-05 -0.000996723 0.828954 -0.000996812 1.84795L-0.000997613 11.012C-0.000997702 12.031 1.016 12.859 2.034 12.859L5.015 12.859C6.034 12.859 6.863 12.03 6.863 11.012L6.863 7.23596L12.934 7.23596C13.236 8.29496 14.071 9.12996 15.13 9.42896L15.13 23.885C13.778 24.375 12.813 25.989 12.813 27.959C12.813 29.929 13.779 31.543 15.13 32.033L16.868 32.033ZM5.126 11.012C5.126 11.073 5.076 11.122 5.016 11.122L2.035 11.122C1.974 11.122 1.925 11.072 1.925 11.012L1.925 1.84795C1.925 1.78595 1.975 1.73695 2.035 1.73695L5.016 1.73696C5.077 1.73696 5.126 1.78695 5.126 1.84796L5.126 11.012ZM15.999 30.451C15.314 30.451 14.552 29.428 14.552 27.959C14.552 26.49 15.314 25.467 15.999 25.467C16.685 25.467 17.447 26.49 17.447 27.959C17.447 29.428 16.685 30.451 15.999 30.451ZM15.999 7.81296C15.201 7.81296 14.552 7.16396 14.552 6.36696C14.552 5.56896 15.201 4.91995 15.999 4.91995C16.798 4.91995 17.447 5.56896 17.447 6.36696C17.447 7.16496 16.798 7.81296 15.999 7.81296ZM26.873 1.84796C26.873 1.78596 26.923 1.73696 26.983 1.73696L29.963 1.73696C30.025 1.73696 30.074 1.78696 30.074 1.84796L30.074 11.012C30.074 11.073 30.024 11.122 29.963 11.122L26.983 11.122C26.922 11.122 26.873 11.072 26.873 11.012L26.873 1.84796Z" fill="#DADADA"/>
<path d="M15.131 32.033L15.131 35.42C14.071 35.72 13.235 36.555 12.935 37.613L6.86402 37.613L6.86402 33.989C6.86402 32.97 6.03502 32.142 5.01602 32.142L2.03502 32.142C1.01602 32.142 2.39399e-05 32.97 2.38508e-05 33.989L2.30497e-05 43.152C-0.00097649 44.172 1.01602 45 2.03402 45L5.01502 45C6.03402 45 6.86302 44.172 6.86302 43.152L6.86302 39.35L12.934 39.35C13.314 40.684 14.544 41.664 15.999 41.664C17.455 41.664 18.685 40.684 19.063 39.35L25.135 39.35L25.135 43.152C25.135 44.172 25.965 45 26.983 45L29.963 45C30.983 45 31.999 44.172 31.999 43.152L31.999 33.989C31.999 32.97 30.982 32.142 29.963 32.142L26.983 32.142C25.963 32.142 25.134 32.97 25.134 33.989L25.134 37.613L19.063 37.613C18.762 36.554 17.927 35.72 16.868 35.42L16.868 32.033L15.131 32.033ZM5.12602 43.152C5.12602 43.215 5.07602 43.263 5.01602 43.263L2.03502 43.263C1.97402 43.263 1.92502 43.214 1.92502 43.152L1.92502 33.989C1.92503 33.927 1.97502 33.879 2.03502 33.879L5.01602 33.879C5.07703 33.879 5.12603 33.928 5.12603 33.837L5.12602 43L5.12602 43.152ZM26.873 33.837C26.873 33.928 26.923 33.879 26.983 33.879L29.963 33.879C30.025 33.879 30.074 33.928 30.074 33.989L30.074 43.152C30.074 43.214 30.024 43.263 29.963 43.263L26.983 43.263C26.922 43.263 26.873 43.213 26.873 42.999L26.873 33.837ZM17.447 38.481C17.447 39.279 16.798 39.927 15.999 39.927C15.201 39.927 14.552 39.279 14.552 38.481C14.552 37.683 15.201 37.034 15.999 37.034C16.798 37.034 17.447 37.684 17.447 38.481Z" fill="#FAB72A"/>
</g>
<defs>
<clipPath id="clip0_1_262">
<rect width="32" height="45" fill="white"/>
</clipPath>
</defs>
</svg>
