<svg width="32" height="45" viewBox="0 0 32 45" fill="none" xmlns="http://www.w3.org/2000/svg">
<g clip-path="url(#clip0_1_259)">
<path d="M15.131 12.967C13.779 13.457 12.814 15.071 12.814 17.041C12.814 19.011 13.78 20.625 15.131 21.115V35.571C14.071 35.872 13.236 36.707 12.936 37.764H6.86402V33.988C6.86402 32.97 6.03502 32.141 5.01502 32.141H2.03502C1.01502 32.141 -0.000976562 32.97 -0.000976562 33.988V43.152C-0.000976562 44.172 1.01602 45 2.03502 45H5.01502C6.03502 45 6.86402 44.171 6.86402 43.152V39.501H12.934C13.314 40.836 14.543 41.816 15.998 41.816C17.454 41.816 18.684 40.836 19.063 39.501H25.133V43.152C25.133 44.172 25.963 45 26.982 45H29.963C30.983 45 32 44.171 32 43.152V33.988C32 32.969 30.983 32.141 29.965 32.141H26.984C25.965 32.141 25.136 32.97 25.136 33.988V37.764H19.065C18.763 36.705 17.928 35.87 16.869 35.571V21.115C18.221 20.625 19.186 19.011 19.186 17.041C19.186 15.071 18.22 13.457 16.869 12.967H15.131ZM26.873 33.988C26.873 33.927 26.923 33.878 26.983 33.878H29.964C30.025 33.878 30.074 33.928 30.074 33.988V43.152C30.074 43.214 30.024 43.263 29.964 43.263H26.983C26.922 43.263 26.873 43.213 26.873 43.152V33.988ZM16 14.549C16.685 14.549 17.447 15.572 17.447 17.041C17.447 18.51 16.685 19.533 16 19.533C15.314 19.533 14.552 18.51 14.552 17.041C14.552 15.572 15.314 14.549 16 14.549ZM16 37.187C16.798 37.187 17.447 37.836 17.447 38.633C17.447 39.431 16.798 40.08 16 40.08C15.201 40.08 14.552 39.431 14.552 38.633C14.552 37.835 15.201 37.187 16 37.187ZM5.12602 43.152C5.12602 43.214 5.07602 43.263 5.01602 43.263H2.03602C1.97402 43.263 1.92502 43.213 1.92502 43.152V33.988C1.92502 33.927 1.97502 33.878 2.03602 33.878H5.01602C5.07702 33.878 5.12602 33.928 5.12602 33.988V43.152Z" fill="#DADADA"/>
<path d="M16.868 12.967V9.58C17.928 9.28 18.764 8.445 19.064 7.387H25.135V11.011C25.135 12.03 25.964 12.858 26.983 12.858H29.964C30.983 12.858 31.999 12.03 31.999 11.011V1.848C32 0.828 30.983 0 29.965 0H26.984C25.965 0 25.136 0.828 25.136 1.848V5.65H19.065C18.685 4.316 17.455 3.336 16 3.336C14.544 3.336 13.314 4.316 12.936 5.65H6.864V1.848C6.864 0.828 6.034 0 5.016 0H2.036C1.016 0 0 0.828 0 1.848V11.011C0 12.03 1.017 12.858 2.036 12.858H5.016C6.036 12.858 6.865 12.03 6.865 11.011V7.387H12.936C13.237 8.446 14.072 9.28 15.131 9.58V12.967H16.868ZM26.873 1.848C26.873 1.785 26.923 1.737 26.983 1.737H29.964C30.025 1.737 30.074 1.786 30.074 1.848V11.011C30.074 11.073 30.024 11.121 29.964 11.121H26.983C26.922 11.121 26.873 11.072 26.873 11.163V2V1.848ZM5.126 11.163C5.126 11.072 5.076 11.121 5.016 11.121H2.036C1.974 11.121 1.925 11.072 1.925 11.011V1.848C1.925 1.786 1.975 1.737 2.036 1.737H5.016C5.077 1.737 5.126 1.787 5.126 2.001V11.163ZM14.552 6.519C14.552 5.721 15.201 5.073 16 5.073C16.798 5.073 17.447 5.721 17.447 6.519C17.447 7.317 16.798 7.966 16 7.966C15.201 7.966 14.552 7.316 14.552 6.519Z" fill="#FAB72A"/>
</g>
<defs>
<clipPath id="clip0_1_259">
<rect width="32" height="45" fill="white"/>
</clipPath>
</defs>
</svg>
