<svg width="35" height="35" viewBox="0 0 35 35" xmlns="http://www.w3.org/2000/svg">
<path d="M23.9 11.2001L8.40002 17.2001C7.90002 17.4001 7.90002 18.1001 8.40002 18.3001L12.3 19.5001L13.8 24.2001C14 24.7001 14.6 24.8001 14.9 24.5001L16.9 22.4001L20.9 25.3001C21.4 25.7001 22.1 25.4001 22.2 24.8001L25 12.1001C25.1 11.5001 24.5 11.0001 23.9 11.2001ZM21.9 14.0001L14.7 20.4001C14.6 20.5001 14.6 20.6001 14.6 20.6001L14.3 23.1001C14.3 23.2001 14.2 23.2001 14.2 23.1001L13.1 19.4001C13 19.2001 13.1 19.0001 13.3 19.0001L21.8 13.7001C21.9 13.6001 22.1 13.9001 21.9 14.0001Z" fill="#D9D9D9"/>
<path d="M17.5 35C7.9 35 0 27.1 0 17.5C0 7.9 7.9 0 17.5 0C27.1 0 35 7.9 35 17.5C35 27.1 27.1 35 17.5 35ZM17.5 1C8.4 1 1 8.4 1 17.5C1 26.6 8.4 34 17.5 34C26.6 34 34 26.6 34 17.5C34 8.4 26.6 1 17.5 1Z" />
</svg>
