<svg width="35" height="35" viewBox="0 0 35 35" fill="none" xmlns="http://www.w3.org/2000/svg">
<g clip-path="url(#clip0_3817_3004)">
<path d="M17.5 35C7.9 35 0 27.1 0 17.5C0 7.9 7.9 0 17.5 0C27.1 0 35 7.9 35 17.5C35 27.1 27.1 35 17.5 35ZM17.5 1C8.4 1 1 8.4 1 17.5C1 26.6 8.4 34 17.5 34C26.6 34 34 26.6 34 17.5C34 8.4 26.6 1 17.5 1Z"/>
<path d="M21.7 20.8C21.2 20.3 20.5 20.3 20 20.8C19.6 21.2 19.2 21.6 18.8 22C18.7 22.1 18.6 22.1 18.5 22.1C18.3 22 18 21.9 17.7 21.7C16.5 21 15.6 20 14.7 19C14.3 18.5 13.9 17.9 13.7 17.3C13.6 17.2 13.6 17.1 13.8 17C14.2 16.6 14.6 16.2 15 15.8C15.5 15.3 15.5 14.6 15 14C14.7 13.7 14.4 13.4 14 13C13.7 12.7 13.3 12.3 13 12C12.5 11.5 11.8 11.5 11.3 12C10.9 12.4 10.5 12.8 10.1 13.2C9.70001 13.6 9.50001 14 9.50001 14.5C9.40001 15.3 9.60001 16.1 9.90001 16.9C10.5 18.5 11.4 19.9 12.5 21.2C14 23 15.8 24.3 17.8 25.3C18.8 25.7 19.7 26.1 20.8 26.2C21.5 26.3 22.1 26.1 22.7 25.5C23.1 25.1 23.4 24.8 23.8 24.4C24.3 23.9 24.3 23.2 23.8 22.6C22.9 22.1 22.2 21.5 21.7 20.8Z" fill="#D9D9D9"/>
<path d="M21 18.1003L22.3 17.9003C22.1 16.8003 21.6 15.8003 20.7 14.9003C19.8 14.0003 18.8 13.5003 17.5 13.3003L17.4 14.6003C18.4 14.7003 19.2 15.1003 19.8 15.8003C20.4 16.4003 20.8 17.2003 21 18.1003Z" fill="#D9D9D9"/>
<path d="M22.9 12.7001C21.5 11.3001 19.6 10.3001 17.6 10.1001L17.5 11.4001C19.2 11.6001 20.8 12.4001 22 13.7001C23.2 14.9001 23.9 16.4001 24.2 18.0001L25.5 17.8001C25.2 15.8001 24.3 14.1001 22.9 12.7001Z" fill="#D9D9D9"/>
</g>
<defs>
<clipPath id="clip0_3817_3004">
<rect width="35" height="35" fill="white"/>
</clipPath>
</defs>
</svg>
