<svg viewBox="0 0 87 64" fill="none" xmlns="http://www.w3.org/2000/svg">
<path d="M79.8591 22.2091C79.8591 28.9826 79.8591 35.7767 79.8591 42.5503C79.8182 42.8377 79.7364 43.1456 79.7159 43.4329C79.5522 45.8139 79.2248 48.1539 78.4268 50.4118C77.3629 53.347 75.4805 55.5638 72.5955 56.8364C70.2015 57.9037 67.6644 58.3348 65.0863 58.4785C62.4878 58.6221 59.8892 58.6427 57.2702 58.6427C46.6101 58.6427 35.9704 58.6632 25.3102 58.6016C22.0569 58.5811 18.8445 58.15 15.8163 56.9185C13.2996 55.8922 11.2944 54.2912 9.98495 51.8691C8.57314 49.2623 8.00023 46.4297 7.93885 43.515C7.79562 37.6035 7.79562 31.7126 7.79562 25.8011C7.79562 23.4817 7.89793 21.1417 8.08208 18.8223C8.2253 16.9339 8.69591 15.1276 9.63711 13.4445C11.1717 10.735 13.7088 9.50348 16.5529 8.78507C19.6016 8.00508 22.7117 7.79982 25.8422 7.79982C37.4231 7.7793 49.0245 7.7793 60.6054 7.7793C63.961 7.7793 67.3166 7.92298 70.6108 8.66191C72.6978 9.13401 74.662 9.87295 76.258 11.3303C78.3041 13.1982 79.0816 15.6407 79.4499 18.2886C79.6136 19.5817 79.7159 20.8954 79.8591 22.2091Z" fill="#333333" fill-opacity="0.8"/>
<path d="M35.5202 32.9441C35.5202 35.4072 35.5202 37.8909 35.5202 40.354C35.5202 42.735 37.2185 43.7818 39.3055 42.6734C44.0934 40.1692 48.9017 37.6446 53.6896 35.1404C54.6308 34.6478 55.2855 33.9704 55.2855 32.8415C55.2651 31.7536 54.6512 31.0968 53.71 30.6041C48.8812 28.1 44.0729 25.5753 39.2441 23.0711C37.2594 22.0448 35.5202 23.1122 35.5202 25.3495C35.4998 27.9152 35.5202 30.4194 35.5202 32.9441Z" fill="white"/>
</svg>
