<svg width="35" height="35" viewBox="0 0 35 35" fill="none" xmlns="http://www.w3.org/2000/svg">
<path d="M16.9 24.1H18.1C18.1 24.1 18.5 24.1 18.6 23.9C18.7 23.7 18.8 23.4 18.8 23.4C18.8 23.4 18.8 21.8 19.5 21.6C20.2 21.4 21.2 23.1 22.1 23.8C22.8 24.3 23.4 24.2 23.4 24.2H26C26 24.2 27.4 24.1 26.7 23C26.7 22.9 26.3 22.2 24.7 20.7C23 19.2 23.2 19.4 25.3 16.7C26.5 15.1 27 14.1 26.8 13.7C26.7 13.3 25.7 13.4 25.7 13.4H22.7C22.7 13.4 22.5 13.4 22.3 13.5C22.1 13.6 22 13.8 22 13.8C22 13.8 21.8 15 21.2 16C19.9 18.2 19.3 18.4 19.1 18.2C18.6 17.9 18.7 16.9 18.7 16.2C18.7 14 19 13.1 18 12.8C17.7 12.7 17.4 12.7 16.6 12.7C15.5 12.7 14.6 12.7 14.1 13C13.7 13.2 13.5 13.5 13.7 13.6C13.9 13.6 14.4 13.7 14.6 14C14.9 14.4 14.9 15.4 14.9 15.4C14.9 15.4 15.1 18 14.5 18.3C14.1 18.5 13.5 18.1 12.3 16C11.7 14.9 11.2 13.8 11.2 13.8C11.2 13.8 11.1 13.6 10.9 13.5C10.7 13.4 10.5 13.3 10.5 13.3H7.79996C7.79996 13.3 7.39996 13.3 7.19996 13.5C7.09996 13.7 7.19996 14 7.19996 14C7.19996 14 9.39996 19.2 11.9 21.8C14.3 24.2 16.9 24.1 16.9 24.1Z" fill="#D9D9D9"/>
<path d="M17.5 35C7.9 35 0 27.1 0 17.5C0 7.9 7.9 0 17.5 0C27.1 0 35 7.9 35 17.5C35 27.1 27.1 35 17.5 35ZM17.5 1C8.4 1 1 8.4 1 17.5C1 26.6 8.4 34 17.5 34C26.6 34 34 26.6 34 17.5C34 8.4 26.6 1 17.5 1Z"/>
</svg>
