<svg width="35" height="35" viewBox="0 0 35 35" fill="none" xmlns="http://www.w3.org/2000/svg">
<g clip-path="url(#clip0_3817_3011)">
<path d="M17.5 35C7.9 35 0 27.1 0 17.5C0 7.9 7.9 0 17.5 0C27.1 0 35 7.9 35 17.5C35 27.1 27.1 35 17.5 35ZM17.5 1C8.4 1 1 8.4 1 17.5C1 26.6 8.4 34 17.5 34C26.6 34 34 26.6 34 17.5C34 8.4 26.6 1 17.5 1Z"/>
<path d="M22.3 19.8C21.8 19.3 21.1 19.3 20.6 19.8C20.2 20.2 19.8 20.6 19.4 21C19.3 21.1 19.2 21.1 19.1 21.1C18.9 21 18.6 20.9 18.3 20.7C17.1 20 16.2 19 15.3 18C14.9 17.5 14.5 16.9 14.3 16.3C14.2 16.2 14.2 16.1 14.4 16C14.8 15.6 15.2 15.2 15.6 14.8C16.1 14.3 16.1 13.6 15.6 13C15.3 12.7 15 12.4 14.6 12C14.3 11.7 13.9 11.3 13.6 11C13.1 10.5 12.4 10.5 11.9 11C11.5 11.4 11.1 11.8 10.7 12.2C10.3 12.6 10.1 13 10.1 13.5C9.99999 14.3 10.2 15.1 10.5 15.9C11.1 17.5 12 18.9 13.1 20.2C14.6 22 16.4 23.3 18.4 24.3C19.4 24.7 20.3 25.1 21.4 25.2C22.1 25.3 22.7 25.1 23.3 24.5C23.7 24.1 24 23.8 24.4 23.4C24.9 22.9 24.9 22.2 24.4 21.6C23.6 21.1 22.9 20.5 22.3 19.8Z" fill="#D9D9D9"/>
</g>
<defs>
<clipPath id="clip0_3817_3011">
<rect width="35" height="35" fill="white"/>
</clipPath>
</defs>
</svg>
