<svg width="35" height="35" viewBox="0 0 35 35" fill="none" xmlns="http://www.w3.org/2000/svg">
<g clip-path="url(#clip0_3817_3015)">
<path d="M17.5 35C7.9 35 0 27.1 0 17.5C0 7.9 7.9 0 17.5 0C27.1 0 35 7.9 35 17.5C35 27.1 27.1 35 17.5 35ZM17.5 1C8.4 1 1 8.4 1 17.5C1 26.6 8.4 34 17.5 34C26.6 34 34 26.6 34 17.5C34 8.4 26.6 1 17.5 1Z"/>
<path fill-rule="evenodd" clip-rule="evenodd" d="M25.5 13.5002C25.2999 12.6002 24.6 12.0002 23.7 11.9002C21.7 11.7002 19.6 11.7002 17.5 11.7002C15.4 11.7002 13.4 11.7002 11.3 11.9002C10.4 12.0002 9.69995 12.6002 9.49995 13.5002C9.19995 14.7002 9.19995 16.1002 9.19995 17.4002C9.19995 18.7002 9.19995 20.1002 9.49995 21.3002C9.69995 22.2002 10.4 22.8002 11.3 22.9002C13.3 23.1002 15.4 23.1002 17.5 23.1002C19.6 23.1002 21.6 23.1002 23.7 22.9002C24.6 22.8002 25.2999 22.2002 25.5 21.3002C25.7999 20.1002 25.7999 18.7002 25.7999 17.4002C25.7999 16.1002 25.7999 14.8002 25.5 13.5002ZM15.4 20.0002V14.5002C17.1 15.4002 18.9 16.3002 20.6 17.2002C18.9 18.2002 17.1 19.1002 15.4 20.0002Z" fill="#D9D9D9"/>
</g>
<defs>
<clipPath id="clip0_3817_3015">
<rect width="35" height="35" fill="white"/>
</clipPath>
</defs>
</svg>
