<svg width="35" height="35" viewBox="0 0 35 35" fill="none" xmlns="http://www.w3.org/2000/svg">
<g clip-path="url(#clip0_3817_2999)">
<path d="M17.5 35C7.9 35 0 27.1 0 17.5C0 7.9 7.9 0 17.5 0C27.1 0 35 7.9 35 17.5C35 27.1 27.1 35 17.5 35ZM17.5 1C8.4 1 1 8.4 1 17.5C1 26.6 8.4 34 17.5 34C26.6 34 34 26.6 34 17.5C34 8.4 26.6 1 17.5 1Z"/>
<path d="M2.44156e-05 17.2C1.70002 17.1 3.50002 17.1 5.20002 17C7.00002 16.9 8.90003 16.6 10.6 16C13.5 14.9 15.3 12.9 16.2 9.9C16.7 8 16.9 6.1 17 4.2C17.1 2.8 17.1 1.4 17.1 0C17.4 0 17.8 0 18.1 0C18.1 1.5 18.2 2.9 18.2 4.4C18.3 6.2 18.5 7.9 18.9 9.7C19.8 13.1 21.9 15.3 25.3 16.2C26.8 16.6 28.3 16.8 29.9 16.9C31.5 17 33.2 17 34.8 17.1C34.8 17.4 34.8 17.8 34.8 18.1C33.5 18.1 32.1 18.2 30.8 18.2C28.9 18.3 27.1 18.5 25.2 19C22.1 19.9 20 21.9 19 25C18.5 26.6 18.3 28.2 18.2 29.9C18.1 31.6 18.1 33.2 18 34.9C17.7 34.9 17.3 34.9 17 34.9C17 33.6 16.9 32.3 16.9 31C16.8 29.2 16.6 27.4 16.2 25.6C15.5 23.1 14.2 21.1 11.8 19.8C10.2 18.9 8.40002 18.5 6.60002 18.4C4.40002 18.2 2.10002 18.2 -0.0999756 18C2.44156e-05 17.8 2.44156e-05 17.5 2.44156e-05 17.2Z" fill="#D9D9D9"/>
</g>
<defs>
<clipPath id="clip0_3817_2999">
<rect width="35" height="35" fill="white"/>
</clipPath>
</defs>
</svg>
