<svg width="90" height="90" viewBox="0 0 90 90" fill="none" xmlns="http://www.w3.org/2000/svg">
<circle cx="45" cy="45" r="45" fill="#FAB72A"/>
<g clip-path="url(#clip0_4_2010)">
<path d="M67.4991 53.9715C65.0972 51.5749 61.4633 50.8369 58.3143 52.0615L56.9356 50.6859C57.045 50.6035 57.1504 50.5132 57.25 50.4138L60.6898 46.9814C61.2537 46.4189 61.5642 45.6686 61.5642 44.8688C61.5642 44.0689 61.2537 43.3186 60.6898 42.7561H60.6899C60.0648 42.1324 59.2298 41.8432 58.4098 41.8877C58.4303 41.7375 58.4414 41.5851 58.4414 41.4308C58.4414 40.544 58.0967 39.7124 57.471 39.0894C56.8638 38.4837 56.078 38.1626 55.2813 38.1257C55.6613 36.9727 55.3943 35.6467 54.4842 34.7362C53.7401 33.9938 52.7276 33.6796 51.7555 33.7919C51.7696 33.6664 51.7778 33.5394 51.7778 33.4111C51.7778 32.5242 51.4338 31.6927 50.8094 31.0696C49.5167 29.7797 47.4133 29.7798 46.1205 31.0696L43.9219 33.2633L43.7518 33.0935C42.9289 32.2724 41.5886 32.2736 40.764 33.0963L40.0344 33.8243L37.908 31.7008C39.1349 28.5574 38.3947 24.9317 35.9925 22.5349C33.9926 20.5394 31.1279 19.6632 28.3309 20.1912C27.9306 20.2665 26.7127 20.4957 26.4627 21.4277C26.2183 22.3391 27.0874 23.0863 27.5052 23.4453C27.5475 23.4817 30.9381 26.8584 30.9381 26.8584C31.8184 27.7368 31.8776 29.1507 31.0813 30.0985C30.1302 30.894 28.7111 30.8353 27.8295 29.9556C27.8295 29.9556 24.4453 26.5725 24.4088 26.5302C24.0488 26.1134 23.2995 25.2466 22.3881 25.4913C21.4563 25.7418 21.2266 26.9565 21.1512 27.3552C20.6219 30.1482 21.5002 33.0073 23.501 35.0035C25.9028 37.3999 29.5367 38.138 32.6858 36.9135L35.1476 39.3697C34.8471 40.146 34.707 41.0005 34.7584 41.8585C34.8751 43.7843 33.8543 45.6731 31.3447 48.1746L28.7307 50.7828C27.8459 50.329 26.7312 50.4706 25.9909 51.2092L22.3298 54.8621C21.8861 55.3048 21.6419 55.8949 21.6419 56.524C21.6419 57.153 21.8862 57.7432 22.3297 58.1857L32.4397 68.2732C32.8982 68.7306 33.5006 68.9593 34.1029 68.9593C34.7052 68.9593 35.3076 68.7306 35.7662 68.2731L39.4273 64.6201C39.8709 64.1775 40.1152 63.5873 40.1152 62.9583C40.1152 62.578 40.0253 62.2121 39.8567 61.8842L44.3034 57.4474C45.6215 56.1324 45.8356 56.168 47.2317 56.401C47.4667 56.4402 47.733 56.4847 48.0326 56.5274C49.2513 56.7025 50.6663 56.0833 51.4692 55.6544L53.0919 57.274C52.6636 58.3731 52.4647 59.5686 52.5149 60.7615C52.5311 61.1472 52.8489 61.4491 53.2314 61.4491C53.2416 61.4491 53.2519 61.4489 53.2622 61.4484C53.6582 61.4318 53.9658 61.0973 53.9491 60.7012C53.9013 59.5641 54.1241 58.4257 54.5935 57.4092C54.7197 57.1359 54.662 56.8129 54.4488 56.6002L42.9636 45.138C43.4307 44.2578 43.6951 43.3217 43.7242 42.4026C44.5509 43.1132 45.6382 43.6922 46.7013 43.978C47.5717 44.212 48.3862 44.25 49.1177 44.0987C49.1176 44.1068 49.1171 44.1148 49.1171 44.123C49.1177 45.0086 49.4625 45.8392 50.0868 46.4604C50.6741 47.0479 51.4461 47.3869 52.275 47.4249C52.1898 47.705 52.1455 47.9996 52.1455 48.3011C52.1455 49.101 52.456 49.8513 53.0198 50.4137C53.603 50.9956 54.3687 51.2865 55.1348 51.2864C55.2515 51.2864 55.368 51.2788 55.4841 51.2653L57.642 53.4183C57.8542 53.6301 58.1757 53.6876 58.4482 53.5626C61.1564 52.3209 64.3863 52.8934 66.4851 54.9874C68.149 56.6475 68.8792 59.0268 68.4383 61.3524C68.3645 61.742 68.2809 61.9461 68.227 62.0458C68.1238 61.9781 67.9545 61.8267 67.6779 61.5062C67.6158 61.4343 64.1845 58.0029 64.1845 58.0029C62.7604 56.5818 60.4562 56.5038 58.9389 57.8255C58.9145 57.8468 58.8916 57.8696 58.8702 57.894C57.5444 59.4091 57.6226 61.7102 59.0481 63.1325L63.0977 67.1627C62.9968 67.2166 62.792 67.2997 62.4033 67.3729C60.0714 67.8127 57.6856 67.0843 56.0224 65.4247C55.4949 64.8959 55.0565 64.2946 54.7197 63.6374C54.5388 63.2845 54.1064 63.1453 53.7535 63.3261C53.4007 63.5069 53.2614 63.9395 53.4423 64.2922C53.8472 65.0821 54.3733 65.8043 55.0074 66.4397C56.624 68.0527 58.8052 68.9345 61.0592 68.9344C61.5939 68.9344 62.1328 68.8847 62.669 68.7835C63.0693 68.7082 64.2873 68.479 64.5373 67.5471C64.7817 66.6357 63.9125 65.8885 63.4947 65.5295C63.4524 65.4931 60.0619 62.1164 60.0619 62.1164C59.1815 61.238 59.1224 59.8241 59.9187 58.8763C60.8698 58.0807 62.2889 58.1396 63.1705 59.0192C63.1705 59.0192 66.5546 62.4023 66.5912 62.4446C66.9512 62.8614 67.701 63.7286 68.6119 63.4835C69.5434 63.2329 69.7731 62.0183 69.8485 61.6195C70.3781 58.8269 69.4997 55.9678 67.4991 53.9715ZM53.4695 35.752C54.1884 36.471 54.1996 37.6477 53.4958 38.3777L51.1886 40.6798C50.7925 40.1059 48.6131 37.9442 48.6131 37.9442L50.8094 35.7526C51.5431 35.0205 52.7368 35.0207 53.4695 35.752ZM47.1346 32.086C47.8682 31.354 49.0622 31.3542 49.7954 32.086C50.1482 32.4379 50.3424 32.9085 50.3424 33.4112C50.3424 33.914 50.1482 34.3846 49.7954 34.7365L47.5968 36.9302L44.9382 34.2775L47.1346 32.086ZM33.358 35.5565C33.1459 35.3448 32.8245 35.2873 32.5519 35.4121C29.8434 36.6538 26.6136 36.0814 24.515 33.9874C22.8511 32.3272 22.1209 29.948 22.5618 27.6223C22.6355 27.2327 22.7192 27.0287 22.7731 26.929C22.8762 26.9967 23.0455 27.1481 23.3222 27.4686C23.3843 27.5405 26.8155 30.9718 26.8155 30.9718C28.2398 32.3931 30.5439 32.4711 32.0611 31.1493C32.0855 31.128 32.1084 31.1051 32.1299 31.0808C33.4557 29.5656 33.3775 27.2646 31.9519 25.8422C31.9519 25.8422 27.9708 21.9152 27.9024 21.8121C28.0033 21.7581 28.2081 21.6751 28.5968 21.6018C30.9283 21.1618 33.3143 21.8905 34.9788 23.5513C37.0766 25.6444 37.6503 28.8654 36.4064 31.5663C36.2807 31.8395 36.3385 32.162 36.5512 32.3744L39.0184 34.8384L36.3439 37.5069C36.1721 37.6784 36.0142 37.8645 35.8679 38.0605L33.358 35.5565ZM50.0876 41.7783C49.9018 41.9638 49.7414 42.1679 49.6067 42.3859C48.0778 43.3332 45.6603 42.2897 44.4573 41.1309L44.3081 40.9823C43.2084 39.8863 42.6235 39.3028 42.5695 39.2475C42.5685 39.2466 42.5676 39.2458 42.5666 39.2448C42.5639 39.2422 42.5615 39.2393 42.5588 39.2366C42.5549 39.2328 42.5511 39.23 42.5473 39.2266C42.2728 38.9638 41.8379 38.9592 41.5586 39.2231C41.2706 39.4955 41.2579 39.9498 41.5303 40.2378C41.5329 40.2405 41.5372 40.245 41.5447 40.2527C42.0346 40.7415 42.2936 41.4262 42.2936 42.2328C42.2936 43.5016 41.6452 44.906 40.5591 45.9896C40.2785 46.2696 40.2781 46.724 40.558 47.0046C40.6983 47.1451 40.8822 47.2154 41.0661 47.2154C41.2496 47.2154 41.4331 47.1456 41.5732 47.0057C41.7811 46.7983 41.9739 46.5812 42.1543 46.3581L50.3998 54.5872C49.5639 54.9795 48.7549 55.181 48.236 55.1064C47.9524 55.0659 47.695 55.0229 47.4679 54.985C45.8047 54.7075 45.0594 54.6651 43.2894 56.4311L38.9203 60.7906L35.3101 57.1885C35.0295 56.9085 34.575 56.909 34.2951 57.1897C34.0151 57.4703 34.0156 57.9247 34.2963 58.2047L38.4119 62.3111C38.412 62.3112 38.4122 62.3113 38.4123 62.3115L38.4128 62.312L38.4135 62.3128C38.5852 62.4841 38.6798 62.7134 38.6798 62.9584C38.6798 63.2034 38.5852 63.4327 38.4134 63.604L34.7521 67.257C34.394 67.6143 33.8115 67.6142 33.4536 67.257L23.3436 57.1697C23.1719 56.9983 23.0774 56.769 23.0774 56.5241C23.0774 56.2792 23.1719 56.0498 23.3437 55.8785L27.0048 52.2254C27.3629 51.8683 27.9455 51.8684 28.3034 52.2254L31.9236 55.8376C32.2043 56.1175 32.6587 56.1172 32.9387 55.8365C33.2187 55.5559 33.2182 55.1014 32.9376 54.8215L29.8264 51.7173L32.3584 49.191C35.189 46.3693 36.3353 44.1505 36.1912 41.7722C36.1185 40.5585 36.5656 39.3135 37.3576 38.523L41.7779 34.1126C42.0387 33.8521 42.4784 33.8511 42.7377 34.1099L43.4137 34.7843L48.0915 39.4517C48.2177 39.5777 48.3437 39.7023 48.4679 39.8252C49.0624 40.4132 49.9194 41.2611 50.1524 41.7132L50.0876 41.7783ZM52.4321 45.9933C51.9275 45.9933 51.4553 45.7989 51.1009 45.4443C50.7477 45.0929 50.553 44.6233 50.5526 44.1221C50.5523 43.6196 50.7473 43.1481 51.1014 42.7945L53.7963 40.1059C54.163 39.7399 54.6448 39.5569 55.1266 39.5569C55.6084 39.5569 56.0903 39.7399 56.457 40.1059C56.4573 40.106 56.4575 40.1063 56.4578 40.1065C56.8112 40.4583 57.006 40.9287 57.006 41.4311C57.006 41.9331 56.8115 42.4033 56.4577 42.7558C56.4574 42.7561 56.4571 42.7563 56.4569 42.7566L53.7617 45.4457C53.4088 45.7989 52.9365 45.9933 52.4321 45.9933ZM54.0338 49.3978C53.7418 49.1065 53.5811 48.7171 53.5811 48.3013C53.5811 47.8855 53.7419 47.4961 54.034 47.2047L57.4712 43.7725C57.7751 43.4692 58.1744 43.3176 58.5736 43.3176C58.9729 43.3176 59.3721 43.4692 59.6761 43.7725H59.6762C59.9681 44.0637 60.1287 44.4531 60.1287 44.8689C60.1287 45.2848 59.968 45.6742 59.6761 45.9654L56.2362 49.3978C55.6288 50.0035 54.6407 50.0034 54.0338 49.3978Z" fill="#333333"/>
</g>
<defs>
<clipPath id="clip0_4_2010">
<rect width="49" height="49" fill="white" transform="translate(21 20)"/>
</clipPath>
</defs>
</svg>
