<svg width="190" height="138" viewBox="0 0 190 138" fill="none" xmlns="http://www.w3.org/2000/svg">
<path d="M138.6 75.7888H134.159V80.1635H138.6V75.7888Z" fill="#00682F"/>
<path d="M143.704 75.7888H139.329V80.1635H143.704V75.7888Z" fill="#00682F"/>
<path d="M133.496 75.7888H129.121V80.1635H133.496V75.7888Z" fill="#00682F"/>
<path fill-rule="evenodd" clip-rule="evenodd" d="M97.0392 80.8265V86.1955C96.8403 87.3224 94.7192 88.9132 93.6586 88.9132H91.2061H88.7536C87.693 88.9132 85.5719 87.3887 85.373 86.1955V80.8265V80.6939H85.5719H89.8804V85.7315H91.2061H92.5318V80.6939H96.8403H96.9729V80.8265H97.0392Z" fill="#00682F"/>
<path fill-rule="evenodd" clip-rule="evenodd" d="M46 88.8469H57.0695V80.6939H52.8936L46 88.8469Z" fill="#00682F"/>
<path fill-rule="evenodd" clip-rule="evenodd" d="M72.3151 88.8468H76.7561V85.1349C78.9435 85.1349 80.6006 85.4 82.1915 83.8092C82.9206 83.0801 83.1857 81.8207 83.1857 80.6275H79.275V82.1521H76.8224V80.6275H72.3151V88.8468Z" fill="#00682F"/>
<path fill-rule="evenodd" clip-rule="evenodd" d="M78.0818 75.7888H72.3151V80.1635H76.8224V79.3681H79.275V80.1635H83.1857C83.1857 76.783 81.1309 75.7888 78.0818 75.7888Z" fill="#00682F"/>
<path fill-rule="evenodd" clip-rule="evenodd" d="M85.4393 79.103V80.1635H89.8804V79.3018H92.5318V80.1635H96.9729V79.2355C96.9729 78.2413 94.5203 75.855 93.3272 75.855H88.9524C87.7593 75.7887 85.4393 78.1087 85.4393 79.103Z" fill="#00682F"/>
<path fill-rule="evenodd" clip-rule="evenodd" d="M59.257 75.9213V79.9647V80.0973H59.3232H63.6317V79.2356H70.1939V75.7888H59.3232H59.257V75.9213Z" fill="#00682F"/>
<path fill-rule="evenodd" clip-rule="evenodd" d="M59.257 88.8468H63.6317C63.6317 85.9966 63.6317 83.4778 63.6317 80.6275H59.257V88.8468Z" fill="#00682F"/>
<path fill-rule="evenodd" clip-rule="evenodd" d="M53.225 80.0973H57.0695V75.7888L53.225 80.0973Z" fill="#00682F"/>
<path fill-rule="evenodd" clip-rule="evenodd" d="M96.9729 88.8469H108.042V80.6939H103.933L96.9729 88.8469Z" fill="#00682F"/>
<path fill-rule="evenodd" clip-rule="evenodd" d="M108.042 80.0973V75.7888L104.33 80.0973H108.042Z" fill="#00682F"/>
<path fill-rule="evenodd" clip-rule="evenodd" d="M108.573 88.8469H113.809V80.6939H109.7L108.573 82.0859V88.8469Z" fill="#00682F"/>
<path fill-rule="evenodd" clip-rule="evenodd" d="M113.809 80.0973V75.7888L110.097 80.0973H113.809Z" fill="#00682F"/>
<path fill-rule="evenodd" clip-rule="evenodd" d="M115.798 88.8469H126.867V80.6939H122.758L115.798 88.8469Z" fill="#00682F"/>
<path fill-rule="evenodd" clip-rule="evenodd" d="M126.867 80.0973V75.7888L123.222 80.0973H126.867Z" fill="#00682F"/>
<path fill-rule="evenodd" clip-rule="evenodd" d="M99.9557 55.8371C99.9557 56.6988 100.884 57.3617 101.878 56.6988C102.276 56.3674 102.342 55.7708 102.077 55.3731C101.547 54.3126 99.9557 54.7103 99.9557 55.8371Z" fill="#00682F"/>
<path fill-rule="evenodd" clip-rule="evenodd" d="M89.1514 57.0965C89.1514 59.0188 89.4828 60.8747 90.1456 62.6644C90.5433 63.5924 91.3388 64.9181 92.2005 65.5147C92.7307 65.9124 93.261 66.3101 93.8576 66.5752C95.2496 67.3044 96.8404 67.6358 98.4312 67.6358C98.8289 67.6358 99.8895 67.6358 100.221 67.5695L100.155 63.0621H97.8347C97.6358 63.0621 96.3764 65.0507 96.3764 65.1832C95.9124 65.1832 95.3158 64.8518 94.9844 64.7193C92.8633 63.6587 91.8028 61.7364 91.4713 59.4165C91.405 58.8862 91.3388 58.2234 91.405 58.0908C91.405 58.0908 92.4656 57.2291 92.5319 57.1628C95.1833 55.0417 97.3044 53.7823 100.685 52.9206C102.806 52.3903 105.192 52.324 107.313 52.7217C107.512 52.788 107.711 52.8543 107.844 53.0532L108.506 54.0474C108.573 54.18 108.639 54.2463 108.705 54.4451C108.904 54.7766 109.567 54.9091 109.832 55.108C113.213 57.0965 116.129 61.0073 116.858 64.7855C116.925 65.117 117.057 65.7798 116.792 65.9124C113.809 67.3706 111.622 70.1546 110.893 73.4688H113.809C113.942 73.2037 114.34 71.414 115.268 70.4197C115.997 69.6243 117.057 69.0278 118.118 68.63C118.913 68.4312 119.642 68.1661 120.504 67.9672C120.504 66.9066 120.371 65.9787 120.106 64.9844C119.642 62.5981 118.515 60.477 117.455 58.2896C117.389 58.1571 117.389 58.0908 117.322 57.9582C117.256 57.8256 117.19 57.8256 117.19 57.6268C117.72 57.2954 118.25 57.0965 119.046 56.9639C121.233 56.5 124.083 56.5662 126.271 57.0965C129.784 57.9582 131.772 59.1513 134.424 61.8027L135.418 62.9296C137.738 66.0449 139.13 69.6243 140.124 73.4025H143.836C143.107 70.2872 141.781 66.9066 140.323 64.1227C139.263 62.333 138.799 61.8027 137.672 60.3445C134.821 57.0302 131.507 55.0417 127.199 54.0474C123.553 53.252 120.173 53.3846 116.527 54.1137C115.997 54.2463 114.472 54.644 113.942 54.18C113.014 53.252 113.146 51.7275 113.146 50.9983C113.08 50.932 110.429 50.4681 110.097 50.4018C106.584 49.8052 102.607 49.8052 99.2266 50.8658C95.8461 52.0589 93.7913 53.252 91.0073 55.572C90.2782 56.1022 89.5491 56.8314 89.1514 57.0965Z" fill="#00682F"/>
<path fill-rule="evenodd" clip-rule="evenodd" d="M94.1889 73.6014L92.7969 70.6849L94.1226 68.9615H92.3992C92.0678 69.4918 91.7363 70.022 91.4049 70.486V68.9615H89.9467V73.6014H91.4049V72.1431L91.7363 71.7454L92.5318 73.6014H94.1889Z" fill="#00682F"/>
<path fill-rule="evenodd" clip-rule="evenodd" d="M89.2176 72.342C89.0187 72.4745 88.7536 72.4745 88.4884 72.4745C87.9581 72.4745 87.4942 72.2094 87.4942 71.2151C87.4942 70.5523 87.7593 70.022 88.3559 70.022C88.5547 70.022 88.8198 70.0883 89.085 70.2209L89.4827 69.094C89.1513 68.8952 88.6873 68.8289 88.2896 68.8289C86.8976 68.8289 85.9696 69.6906 85.9696 71.3477C85.9696 72.9385 86.8313 73.6677 88.3559 73.6677C88.7536 73.6677 89.2176 73.5351 89.549 73.4025L89.2176 72.342Z" fill="#00682F"/>
<path fill-rule="evenodd" clip-rule="evenodd" d="M83.8486 67.5033C83.8486 67.8347 83.716 67.9673 83.3846 67.9673C83.0531 67.9673 82.9206 67.8347 82.9206 67.5033H81.7275C81.6612 68.4313 82.3903 68.7627 83.3183 68.7627C84.2463 68.7627 84.9754 68.4313 84.9091 67.5033H83.8486Z" fill="#00682F"/>
<path fill-rule="evenodd" clip-rule="evenodd" d="M85.5056 73.6014V68.9615H84.2462L83.0531 70.7512L82.7217 71.2814V70.7512V68.9615H81.2634V73.6014H82.5228L83.7822 71.8117L84.0474 71.3477V71.8117V73.6014H85.5056Z" fill="#00682F"/>
<path fill-rule="evenodd" clip-rule="evenodd" d="M79.4738 68.9615C79.3412 69.4918 79.2086 70.0883 79.0098 70.6186L78.9435 70.8837L78.8772 70.6849C78.6784 70.2209 78.4795 69.558 78.2807 69.0278H76.6898C77.1538 70.2872 77.6841 71.4803 78.1481 72.342C78.0818 72.4083 78.0155 72.4746 77.8829 72.4746H77.2864V73.6014C77.5515 73.6677 77.8167 73.6677 78.0818 73.6677C79.0098 73.6677 79.3412 73.27 79.8052 72.2094C80.2692 71.0826 80.6669 70.022 80.932 68.9615H79.4738Z" fill="#00682F"/>
<path fill-rule="evenodd" clip-rule="evenodd" d="M75.1653 70.5523C75.1653 70.8837 75.0327 71.1489 74.7013 71.1489H74.5025V70.022H74.635C74.7676 70.022 74.9002 70.022 74.9664 70.0883C75.099 70.1546 75.1653 70.3535 75.1653 70.5523ZM76.6898 70.486C76.6898 69.6243 76.2259 69.1603 75.3642 69.0278C75.1653 68.9615 74.9002 68.9615 74.7013 68.9615H72.9779V73.6014H74.4362V72.2094H74.5687C75.9607 72.2094 76.6898 71.6792 76.6898 70.486Z" fill="#00682F"/>
<path fill-rule="evenodd" clip-rule="evenodd" d="M70.9893 72.1431C70.9893 72.4083 70.7904 72.5409 70.459 72.5409H70.0613V71.6792H70.3927C70.8567 71.6792 70.9893 71.878 70.9893 72.1431ZM72.5138 72.0769C72.5138 71.0826 71.9835 70.6849 70.5253 70.6849H70.1276V70.022H72.1161V68.9615H68.7356V73.6014H70.3264C71.4533 73.6014 72.5138 73.27 72.5138 72.0769Z" fill="#00682F"/>
<path fill-rule="evenodd" clip-rule="evenodd" d="M66.6808 71.2814C66.6808 72.0106 66.482 72.5408 65.8191 72.5408C65.1563 72.5408 64.9574 72.1431 64.9574 71.2151C64.9574 70.5523 65.09 70.022 65.8191 70.022C66.482 70.022 66.6808 70.486 66.6808 71.2814ZM68.2054 71.2151C68.2054 69.4254 67.3437 68.8289 65.8854 68.8289C64.3608 68.8289 63.4991 69.7569 63.4991 71.2814C63.4991 73.1374 64.3608 73.734 65.8191 73.734C67.4099 73.734 68.2054 72.8723 68.2054 71.2151Z" fill="#00682F"/>
<path fill-rule="evenodd" clip-rule="evenodd" d="M61.6432 72.1431C61.6432 72.4083 61.4443 72.5409 61.1129 72.5409H60.7152V71.6792H61.0466C61.5106 71.6792 61.6432 71.878 61.6432 72.1431ZM63.1015 72.0769C63.1015 71.0826 62.5712 70.6849 61.1129 70.6849H60.7152V70.022H62.7038V68.9615H59.3232V73.6014H60.9804C62.0409 73.6014 63.1015 73.27 63.1015 72.0769Z" fill="#00682F"/>
<path fill-rule="evenodd" clip-rule="evenodd" d="M129.121 80.8265V87.7201V88.8469V88.9132H139.329H143.637H143.704V80.6939H139.727H139.329V84.8698H138.666V80.6939H138.6H134.225V84.8698H133.496V80.8265V80.6939H133.363H129.254H129.121V80.8265Z" fill="#00682F"/>
</svg>
