<svg width="190" height="138" viewBox="0 0 190 138" fill="none" xmlns="http://www.w3.org/2000/svg">
<path d="M119.672 87.3988H70V89.4815H119.672V87.3988Z" fill="#194D94"/>
<path fill-rule="evenodd" clip-rule="evenodd" d="M106.134 98.9576L104.989 102.394H107.28L106.134 98.9576ZM84.1621 98.9576L83.0166 102.394H85.3075L84.1621 98.9576ZM73.7488 93.6469V97.8122L77.9141 93.6469H81.3505L77.81 97.1874L80.3091 103.331L83.5373 93.6469H86.1406L89.2646 103.019V93.6469H93.7423L95.825 100.416L98.1159 93.6469H102.385V103.019L105.509 93.6469H108.217L111.549 103.748L114.881 95.7295H111.445V93.6469H119.776L115.714 103.748H119.776V105.83H108.425L108.009 104.477H104.364L103.947 105.83H98.6366V99.1659L96.5539 105.83H93.6382L91.5555 99.1659V105.83H86.453L86.0365 104.477H82.3918L81.9753 105.83H77.081L74.7901 99.999L73.7488 101.04V105.83H70.1041V93.6469H73.7488Z" fill="#194D94"/>
<path fill-rule="evenodd" clip-rule="evenodd" d="M88.015 52.306C86.7654 49.3902 86.9737 45.7456 87.2861 42.6216C87.7026 42.7257 88.1192 42.7257 88.4316 43.0381C88.015 46.058 88.015 49.182 88.015 52.306ZM96.4498 63.9689C95.7209 62.9275 94.992 61.9903 93.7424 62.9275C93.6382 62.9275 93.5341 62.9275 93.43 62.9275C93.3258 61.8862 94.1589 62.3027 94.6796 61.6779C94.3672 59.1788 91.6597 56.5754 90.2018 54.701C89.7853 53.2432 89.7853 51.8894 89.6812 50.3274C91.2432 50.3274 92.3886 50.6398 93.7424 51.3688C93.8465 51.0564 93.8465 50.744 93.8465 50.3274C99.5738 52.0977 98.7408 56.6796 97.4912 59.8036C96.8664 60.8449 95.825 60.0118 95.7209 61.5738C96.8664 61.5738 97.1788 62.1986 97.6994 63.1358C97.6994 63.6565 96.8664 63.8647 96.4498 63.9689ZM89.4729 64.3854C89.3688 63.9689 89.2646 63.9689 89.3688 63.5523C91.139 62.511 90.306 61.2614 88.8481 60.4284C88.744 60.1159 88.5357 59.8036 88.4316 59.4912C88.5357 59.2829 88.6398 59.0746 88.744 58.8664C90.9308 58.7622 92.0762 58.6581 92.701 60.7408C92.5969 61.4697 91.868 62.1986 91.3473 62.7193C90.8266 63.9689 90.7225 64.2813 89.4729 64.3854ZM86.9737 65.9474C85.9324 65.635 84.7869 65.5309 83.7456 65.5309C81.767 64.6978 81.0381 64.2813 80.7257 62.0945C81.1422 61.6779 81.4546 61.3655 82.0794 61.1573C83.2249 61.9903 84.2662 62.8234 85.0993 63.9689C85.9324 64.3854 86.5572 64.073 87.3902 64.6978C88.1192 64.8019 88.1192 64.8019 88.3274 64.8019C88.3274 64.9061 88.3274 65.0102 88.3274 65.1143C87.9109 65.5309 87.4944 65.7391 86.9737 65.9474ZM86.7654 74.4863C86.2448 73.445 85.7241 72.5078 85.0993 71.5706C83.9538 70.4251 82.496 70.0086 83.6414 68.5507C83.9538 68.5507 84.1621 68.5507 84.4745 68.5507C86.1406 70.0086 85.7241 72.6119 87.9109 73.8615C87.9109 73.9657 87.9109 74.0698 87.9109 74.2781C87.4944 74.2781 87.182 74.3822 86.7654 74.4863ZM102.594 74.7987C101.552 74.3822 101.761 73.3409 101.761 72.4037C101.032 70.9458 100.511 69.6962 98.949 69.0714C98.4284 68.3425 97.387 67.0929 98.116 66.2598C99.9903 66.2598 100.407 67.7177 100.823 69.1755C101.552 70.8417 102.49 72.4037 103.323 73.8615C103.323 74.0698 103.323 74.3822 103.323 74.5905C103.01 74.6946 102.802 74.7987 102.594 74.7987ZM101.344 77.8186C100.511 77.2979 99.6779 76.7773 98.949 76.3607C98.8449 75.2153 97.5953 74.4863 96.8664 73.7574C96.4498 72.9243 96.0333 71.9871 95.6168 71.1541C94.263 69.5921 92.2845 69.8003 94.1589 67.7177C94.992 67.4053 94.992 67.4053 95.4085 67.3011C96.0333 68.8631 96.6581 69.4879 98.116 70.4251C99.7821 72.1954 99.3655 74.4863 101.032 76.1525C101.032 76.3607 101.761 77.7145 101.344 77.8186ZM104.26 77.8186C104.156 77.8186 104.156 77.9227 104.156 77.9227C103.843 77.9227 103.635 77.8186 103.323 77.8186C103.323 77.4021 103.323 77.4021 103.427 77.0897C103.531 77.0897 103.739 77.0897 103.947 77.0897C104.052 77.4021 104.156 77.6103 104.26 77.8186ZM104.156 78.0269C104.156 77.9227 104.26 77.9227 104.26 77.9227C104.468 78.2351 105.509 79.9013 105.405 80.4219C105.093 80.6302 104.885 80.7343 104.676 80.9426C104.156 80.4219 104.156 78.6517 104.156 78.0269ZM104.364 83.5459C104.156 82.0881 104.156 81.9839 103.947 81.4633C102.802 81.7757 101.656 81.7756 101.24 80.6302C100.094 81.255 99.7821 81.3591 98.5325 81.255C98.116 80.3178 97.6994 79.3806 97.2829 78.3393C96.9705 78.131 96.6581 77.9227 96.3457 77.7145C95.3044 76.4649 95.2002 75.4235 93.6382 74.6946C92.2845 72.6119 92.1804 72.7161 89.6812 72.1954C88.9522 71.883 88.015 71.4665 87.2861 71.4665C87.5985 71.883 87.8068 72.2995 88.1192 72.8202C88.5357 73.0285 89.0564 73.1326 89.577 73.3409C90.7225 74.4863 90.8266 76.3607 92.0762 77.5062C92.1804 76.9855 92.0762 76.7773 91.9721 76.3607C93.9506 76.3607 94.6796 77.0897 94.8878 78.9641C93.7424 81.4632 91.4514 81.255 90.2018 78.8599C89.8894 78.6517 87.9109 77.7145 85.9324 76.6731C85.2034 75.6318 84.6828 74.3822 83.8497 73.445C82.8084 72.8202 81.767 72.1954 80.934 71.2582C80.8298 70.2169 80.6216 69.3838 80.1009 68.5507C79.7885 68.2383 77.9141 66.8846 77.9141 66.3639C75.5191 65.635 76.248 57.5126 76.4563 55.6382C77.2893 53.3473 77.2893 53.3473 77.6017 51.8894C77.81 50.1192 77.81 50.1192 78.0183 45.1208C78.7472 43.9753 79.6844 43.1422 78.0183 42.5174C78.5389 41.1637 79.8926 40.3307 80.4133 39.0811C80.4133 38.5604 80.3092 38.3521 80.3092 38.0397C82.496 36.5819 84.058 35.8529 84.891 33.3537C85.62 32.5207 85.62 32.5207 86.3489 32C86.453 32 86.453 32 86.5572 32C86.453 32.7289 86.453 33.3537 86.453 34.0827C88.6398 33.6661 88.8481 33.562 89.1605 33.562C88.8481 34.0827 88.8481 34.0827 88.744 34.6033C89.4729 34.7075 90.2018 34.6033 90.9308 34.6033C92.9093 35.4364 95.7209 34.7075 97.9077 35.3323C98.3242 35.7488 98.3242 36.1653 98.3242 36.686C99.7821 36.8943 100.199 38.248 98.8449 38.7687C98.0118 38.7687 97.1788 38.7687 96.3457 39.0811C96.3457 39.1852 96.3457 39.3935 96.4498 39.4976C97.1788 39.4976 97.9077 39.4976 98.5325 39.6017C98.7408 40.8513 97.5953 42.1009 96.3457 41.2679C94.4713 41.372 94.4713 41.372 93.43 41.5803C93.0134 42.7257 90.8266 42.7257 89.7853 42.8298C89.4729 44.9125 89.6812 46.9952 89.7853 49.0778C91.868 48.7654 92.8052 48.7654 94.8878 49.2861C96.0333 48.5572 97.2829 47.9324 98.4284 47.5158C103.114 46.2662 108.217 47.0993 113.007 47.0993C113.215 47.0993 113.528 47.0993 113.736 47.0993C113.632 47.62 113.215 47.9324 113.007 48.3489C111.862 48.7654 110.82 48.9737 110.716 49.0778C110.924 49.2861 110.924 49.2861 111.445 49.3902C111.028 50.8481 107.384 50.3274 106.967 51.577C107.28 51.7853 107.28 51.7853 107.8 51.9936C104.78 53.3473 102.281 52.2018 99.1573 51.9936C98.8449 52.0977 98.6366 52.0977 98.4284 52.2018C99.5738 54.0762 99.7821 57.6168 99.8862 60.4284C99.8862 60.5325 99.8862 60.7408 99.8862 60.8449C101.136 63.1358 101.761 65.4267 102.073 68.0301C102.385 69.1755 103.01 69.9045 103.635 70.7375C104.052 71.883 104.052 71.883 104.676 74.4863C105.301 75.4235 105.926 76.3607 106.447 77.2979C106.863 78.8599 108.946 80.9426 108.842 82.1922C108.529 82.1922 107.488 83.1294 107.384 83.4418C106.238 83.5459 105.301 83.5459 104.364 83.5459ZM98.116 36.686C98.0118 36.686 97.6994 36.7901 97.5953 36.8943C96.9705 37.2067 96.2416 36.8943 96.4498 36.1653C96.4498 36.1653 98.116 36.5819 98.116 36.686ZM89.6812 36.686C90.306 35.8529 91.2432 35.6447 91.5556 36.5819C91.139 37.2067 89.9936 37.2067 89.6812 36.686Z" fill="#194D94"/>
</svg>
