<svg width="190" height="138" viewBox="0 0 190 138" fill="none" xmlns="http://www.w3.org/2000/svg">
<path d="M110.304 82.4086C110.963 83.2872 111.622 84.1658 112.281 85.1542C112.061 85.264 111.842 85.4837 111.622 85.5935C110.853 86.0328 110.194 86.4721 109.426 86.9114C108.547 87.3507 107.669 87.79 106.79 88.2293C105.582 88.7784 104.374 89.1078 103.056 89.4373C101.628 89.8766 100.201 90.0962 98.6631 90.2061C97.455 90.3159 96.247 90.4257 95.0389 90.4257C94.0505 90.4257 93.1719 90.3159 92.1835 90.2061C90.8657 90.0962 89.5478 89.7668 88.2299 89.4373C86.0335 88.8882 83.837 88.0096 81.8602 86.9114C79.7736 85.8131 77.9066 84.4953 76.1494 82.9578C74.9414 81.9694 73.953 80.7613 72.9646 79.5533C71.5369 77.7961 70.3288 75.8193 69.2306 73.7326C68.352 71.8657 67.6931 69.9987 67.2538 67.912C66.9243 66.3745 66.5948 64.837 66.5948 63.2995C66.5948 62.0914 66.485 60.7736 66.5948 59.5655C66.8145 56.3807 67.4734 53.4154 68.5716 50.4502C69.2306 48.6931 70.1092 47.0457 71.2074 45.3984C72.086 44.0805 72.9646 42.8725 74.0628 41.7742C75.161 40.5662 76.3691 39.4679 77.6869 38.3697C79.2244 37.1617 80.8718 36.0634 82.5191 35.1849C83.9468 34.4161 85.4843 33.7572 87.1317 33.3179C88.3397 32.9884 89.5478 32.6589 90.8657 32.4393C91.6344 32.3295 92.513 32.2196 93.2818 32.1098C94.4898 32 95.8077 32 97.0157 32C97.6747 32 98.4434 32.1098 99.1024 32.2196C100.201 32.4393 101.299 32.5491 102.397 32.7688C103.935 33.0982 105.472 33.6473 106.9 34.1965C108.218 34.7456 109.536 35.4045 110.853 36.2831C112.281 37.1617 113.599 38.1501 114.807 39.2483C115.686 40.1269 116.564 40.8956 117.443 41.884C118.541 43.0921 119.42 44.3001 120.298 45.618C121.287 47.1555 122.055 48.8029 122.824 50.56C123.593 52.427 124.032 54.294 124.362 56.2708C124.691 58.4673 124.801 60.6637 124.801 62.8602C124.691 64.6174 124.471 66.3745 124.032 68.0219C123.593 69.8889 122.934 71.646 122.165 73.2934C121.506 74.721 120.737 76.0389 119.859 77.3568C119.749 77.4666 119.639 77.5764 119.529 77.7961C118.651 77.1372 117.772 76.4782 116.894 75.8193C117.223 75.38 117.553 74.8309 117.772 74.3916C118.651 72.9639 119.31 71.4264 119.969 69.779C120.518 68.2415 120.847 66.704 121.177 65.1665C121.506 63.4093 121.506 61.5423 121.396 59.7852C121.287 58.7968 121.177 57.8083 121.067 56.8199C120.847 55.3922 120.518 54.0744 119.969 52.6467C119.09 50.2306 117.882 47.9243 116.345 45.8377C115.905 45.2886 115.466 44.7394 114.917 44.1903C114.807 44.0805 114.697 44.0805 114.587 44.0805C112.171 44.0805 109.645 44.0805 107.229 44.0805C106.57 44.0805 106.021 44.41 105.582 44.7394C104.923 45.2886 104.593 45.9475 104.374 46.6064C103.935 47.8145 103.385 49.1323 102.946 50.3404C102.287 51.9877 101.738 53.5253 101.079 55.1726C100.75 55.9414 100.42 56.7101 100.201 57.4789C99.9809 58.028 99.9809 58.4673 100.31 59.0164C100.64 59.3459 101.079 59.4557 101.518 59.4557C102.507 59.4557 103.495 59.4557 104.484 59.4557C105.033 59.4557 105.582 59.4557 106.131 59.4557C107.449 59.4557 108.108 60.6637 107.669 61.8718C107.229 62.97 106.79 63.9584 106.46 65.0566C105.033 68.6808 103.605 72.1951 102.177 75.8193C101.738 77.0273 101.189 78.2354 100.75 79.4434C100.31 80.5417 99.5417 81.3104 98.3336 81.6399C98.0041 81.7497 97.5648 81.7497 97.2354 81.7497C97.1256 81.7497 96.9059 81.7497 96.7961 81.7497C95.9175 81.7497 95.0389 81.7497 94.0505 81.7497C91.9639 81.7497 89.8773 81.7497 87.6808 81.7497C85.3745 81.7497 82.9584 81.7497 80.6521 81.7497C80.5423 81.7497 80.5423 81.7497 80.4325 81.7497C84.8254 85.0444 89.7674 86.8016 95.2586 86.9114C100.75 87.0212 105.802 85.4837 110.304 82.4086ZM111.073 40.676C111.183 40.676 111.183 40.5662 111.073 40.676C111.073 40.5662 110.963 40.5662 110.963 40.4564C109.426 39.3581 107.778 38.3697 106.021 37.601C104.593 36.942 103.056 36.5027 101.409 36.0634C99.8711 35.734 98.3336 35.5143 96.7961 35.4045C95.0389 35.2947 93.2818 35.4045 91.5246 35.734C89.5478 36.0634 87.571 36.6126 85.704 37.3813C84.4959 37.9304 83.2879 38.4795 82.0798 39.2483C80.8718 40.0171 79.7736 40.7858 78.6753 41.7742C77.6869 42.6528 76.6985 43.6412 75.8199 44.7394C73.953 46.9359 72.6351 49.352 71.5369 51.9877C70.6583 54.294 70.1092 56.8199 69.8895 59.3459C69.7797 61.3227 69.7797 63.2995 70.1092 65.1665C70.4386 67.4727 71.2074 69.779 72.1958 71.8657C73.294 74.1719 74.6119 76.2586 76.2592 78.1256C76.3691 78.2354 76.4789 78.3452 76.6985 78.3452C79.0048 78.3452 81.2013 78.3452 83.5075 78.3452C84.1665 78.3452 84.8254 78.1256 85.3745 77.7961C86.0335 77.3568 86.4727 76.8077 86.8022 76.1487C87.1317 75.2702 87.4612 74.2818 87.9004 73.4032C88.5594 71.646 89.2183 69.8889 89.8773 68.1317C90.3165 67.0335 90.7558 65.9352 91.1951 64.837C91.3049 64.3977 91.4148 63.9584 91.1951 63.5191C90.8657 63.0798 90.4264 62.8602 89.9871 62.8602C88.4496 62.8602 86.912 62.8602 85.4843 62.8602C84.6058 62.8602 83.9468 62.3111 83.837 61.5423C83.7272 61.103 83.7272 60.6637 83.9468 60.3343C85.0451 57.4789 86.1433 54.7333 87.2415 51.8779C87.9004 50.1208 88.6692 48.3636 89.3281 46.6064C89.8773 45.2886 90.3165 44.0805 90.8657 42.7626C91.3049 41.7742 91.9639 41.1153 92.9523 40.7858C93.6112 40.5662 94.2702 40.5662 94.9291 40.5662C99.9809 40.5662 105.033 40.5662 110.085 40.5662C110.524 40.676 110.853 40.676 111.073 40.676Z" fill="white"/>
<path d="M112.83 105.252C111.622 105.252 110.524 105.252 109.316 105.252C109.316 103.824 109.206 102.287 109.206 100.749C108.327 101.737 107.449 102.726 106.57 103.714C105.692 102.726 104.813 101.847 103.935 100.859C103.935 100.859 103.935 100.859 103.825 100.859C103.825 102.287 103.825 103.714 103.825 105.252C102.617 105.252 101.518 105.252 100.31 105.252C100.31 102.396 100.31 99.6508 100.31 96.7954H100.42C101.409 96.7954 102.397 96.7954 103.385 96.7954C103.495 96.7954 103.605 96.9052 103.605 97.0151C104.594 98.1133 105.472 99.1017 106.461 100.2C106.461 100.2 106.46 100.2 106.57 100.31C106.9 99.8705 107.229 99.4312 107.669 98.9919C108.218 98.3329 108.767 97.5642 109.316 96.9052C109.316 96.7954 109.426 96.7954 109.536 96.7954C110.634 96.7954 111.622 96.7954 112.72 96.7954C112.72 96.7954 112.72 96.7954 112.83 96.7954C112.83 99.541 112.83 102.396 112.83 105.252Z" fill="white"/>
<path d="M138.638 105.252C138.089 105.252 137.54 105.252 136.991 105.252C136.552 105.252 136.113 105.252 135.673 105.252C135.563 105.252 135.454 105.142 135.344 105.142C133.916 103.824 132.598 102.616 131.171 101.298C131.061 101.188 131.061 101.188 130.951 101.078C130.951 102.506 130.951 103.824 130.951 105.252C129.853 105.252 128.645 105.252 127.546 105.252C127.546 102.396 127.546 99.6508 127.546 96.7954C127.656 96.7954 127.656 96.7954 127.766 96.7954C128.645 96.7954 129.413 96.7954 130.292 96.7954C130.402 96.7954 130.512 96.7954 130.621 96.9052C131.939 98.1133 133.257 99.3213 134.575 100.529C134.795 100.749 135.014 100.969 135.344 101.188C135.344 99.6508 135.234 98.2231 135.234 96.7954C136.442 96.7954 137.65 96.7954 138.858 96.7954C138.638 99.541 138.638 102.396 138.638 105.252Z" fill="white"/>
<path d="M62.9707 96.7954C64.2885 96.7954 65.6064 96.7954 66.8145 96.7954C66.8145 97.7838 66.8145 98.882 66.8145 99.8705C67.9127 99.8705 69.0109 99.8705 70.1091 99.8705C70.1091 98.882 70.1091 97.7838 70.1091 96.7954C71.427 96.7954 72.7449 96.7954 74.0628 96.7954C74.0628 99.6508 74.0628 102.396 74.0628 105.252C72.7449 105.252 71.427 105.252 70.1091 105.252C70.1091 104.263 70.1091 103.275 70.1091 102.287C69.0109 102.287 67.9127 102.287 66.8145 102.287C66.8145 103.275 66.8145 104.263 66.8145 105.252C65.4966 105.252 64.1787 105.252 62.8608 105.252C62.9707 102.396 62.9707 99.541 62.9707 96.7954Z" fill="white"/>
<path d="M51 102.726C51.2196 102.726 51.4393 102.726 51.5491 102.726C52.5375 102.726 53.6357 102.726 54.6242 102.726C54.734 102.726 54.8438 102.726 54.8438 102.836C55.0634 103.275 55.5027 103.385 55.8322 103.494C56.3813 103.604 57.0403 103.604 57.5894 103.494C57.809 103.494 57.9188 103.385 58.0287 103.275C58.2483 103.055 58.2483 102.836 58.0287 102.726C57.809 102.616 57.6992 102.506 57.4795 102.506C56.601 102.286 55.7224 102.177 54.9536 101.957C53.9652 101.737 53.0866 101.518 52.2081 100.969C50.8902 100.09 50.8902 98.4426 52.2081 97.5641C52.867 97.1248 53.6357 96.9051 54.4045 96.6855C55.8322 96.4658 57.2599 96.356 58.7974 96.6855C59.676 96.9051 60.4448 97.2346 61.1037 97.7837C61.4332 98.1132 61.7626 98.7721 61.7626 99.1016C61.6528 99.1016 61.6528 99.1016 61.543 99.1016C60.4448 99.1016 59.3465 99.1016 58.2483 99.1016C58.1385 99.1016 58.0287 99.1016 57.9188 98.9918C57.809 98.8819 57.6992 98.6623 57.4795 98.6623C56.8206 98.3328 56.1617 98.3328 55.3929 98.5525C55.1733 98.5525 55.0634 98.6623 54.9536 98.8819C54.9536 99.1016 55.0634 99.3212 55.2831 99.3212C55.8322 99.5409 56.4911 99.7605 57.0403 99.8703C58.0287 100.09 59.1269 100.2 60.1153 100.639C60.5546 100.859 60.9939 101.078 61.3233 101.298C61.9823 101.847 62.2019 102.506 61.7626 103.385C61.4332 104.153 60.884 104.593 60.1153 104.922C59.2367 105.252 58.3581 105.471 57.3697 105.471C56.0518 105.581 54.734 105.471 53.4161 105.142C52.6473 104.922 51.8786 104.593 51.3295 103.934C51.2196 103.714 51.1098 103.275 51 102.726Z" fill="white"/>
<path d="M98.6631 98.9918C98.0041 98.9918 97.2354 98.9918 96.5764 98.9918C95.6979 98.9918 94.7094 98.9918 93.8309 98.9918C93.1719 98.9918 92.513 99.3213 92.0737 99.8704C91.4148 100.639 91.6344 101.847 92.513 102.506C93.0621 102.836 93.6112 102.945 94.2702 102.945C95.588 102.945 97.0157 102.945 98.3336 102.945C98.4434 102.945 98.5532 102.945 98.7729 102.945C98.7729 103.714 98.7729 104.483 98.7729 105.362C98.4434 105.362 98.114 105.362 97.7845 105.362C96.247 105.362 94.5996 105.362 93.0621 105.362C91.9639 105.362 90.9755 105.142 90.0969 104.483C88.6692 103.495 87.9004 102.287 88.1201 100.529C88.2299 99.3213 88.8888 98.4427 89.7674 97.7838C90.7558 97.015 91.9639 96.6855 93.1719 96.6855C94.9291 96.6855 96.6863 96.6855 98.3336 96.6855C98.4434 96.6855 98.5532 96.6855 98.7729 96.6855C98.6631 97.4543 98.6631 98.2231 98.6631 98.9918Z" fill="white"/>
<path d="M87.7906 105.252C86.6924 105.252 85.5942 105.252 84.4959 105.252C84.3861 105.252 84.2763 105.142 84.2763 105.032C84.0567 104.593 83.837 104.154 83.6174 103.824C83.6174 103.714 83.5075 103.714 83.3977 103.714C82.0798 103.714 80.6522 103.714 79.3343 103.714C79.2245 103.714 79.1146 103.714 79.0048 103.934C78.7852 104.373 78.5655 104.703 78.2361 105.142C78.2361 105.252 78.1262 105.252 78.0164 105.252C76.9182 105.252 75.7101 105.252 74.5021 105.252C74.6119 105.032 74.7217 104.812 74.8315 104.703C76.2592 102.177 77.7968 99.541 79.2245 97.0151C79.3343 96.7954 79.4441 96.7954 79.6637 96.7954C80.6522 96.7954 81.6406 96.7954 82.629 96.7954C82.8486 96.7954 82.9584 96.7954 82.9584 97.0151C84.3861 99.541 85.8138 102.067 87.2415 104.593C87.571 104.703 87.6808 104.922 87.7906 105.252ZM81.3111 99.2115C80.762 100.2 80.2129 101.188 79.7736 102.177C80.8718 102.177 81.8602 102.177 82.8486 102.177C82.2995 101.188 81.7504 100.2 81.3111 99.2115Z" fill="white"/>
<path d="M126.778 105.252C125.68 105.252 124.581 105.252 123.593 105.252C123.483 105.252 123.483 105.142 123.373 105.142C123.154 104.703 122.934 104.263 122.604 103.934C122.604 103.824 122.495 103.824 122.385 103.824C121.067 103.824 119.749 103.824 118.321 103.824C118.102 103.824 117.992 103.824 117.992 104.044C117.772 104.483 117.443 104.813 117.223 105.252C117.223 105.362 117.113 105.362 117.004 105.362C115.905 105.362 114.807 105.362 113.709 105.362H113.599C113.928 104.813 114.148 104.263 114.478 103.824C115.795 101.628 117.003 99.3214 118.321 97.1249C118.431 97.0151 118.541 96.9053 118.651 96.9053C119.639 96.9053 120.737 96.9053 121.726 96.9053C121.836 96.9053 121.946 97.0151 122.055 97.1249C123.593 99.7607 125.13 102.506 126.668 105.142C126.668 105.032 126.668 105.142 126.778 105.252ZM121.616 102.067C121.177 101.079 120.628 100.09 120.079 99.1017C119.529 100.09 118.98 101.079 118.541 102.067C119.639 102.067 120.628 102.067 121.616 102.067Z" fill="white"/>
<path d="M113.489 84.2756C113.16 83.8364 112.83 83.3971 112.501 83.0676C112.171 82.6283 111.842 82.189 111.512 81.8595C111.403 81.7497 111.403 81.6399 111.403 81.5301C111.293 80.4318 111.622 79.3336 112.391 78.455C112.94 77.7961 113.709 77.3568 114.587 77.1372C115.027 77.0273 115.576 77.0273 116.015 77.0273C116.125 77.0273 116.235 77.0273 116.235 77.1372C117.004 77.7961 117.882 78.3452 118.651 79.0042C118.761 79.114 118.761 79.2238 118.651 79.3336C117.772 80.4318 116.784 81.5301 115.795 82.5185C115.137 83.1774 114.368 83.7265 113.709 84.2756C113.599 84.1658 113.599 84.1658 113.489 84.2756Z" fill="white"/>
</svg>
