<svg width="190" height="138" viewBox="0 0 190 138" fill="none" xmlns="http://www.w3.org/2000/svg">
<path d="M88.1356 61.5476C87.4035 61.1483 86.738 60.8821 86.006 60.6824C85.0742 60.4162 82.2791 59.9504 81.2808 59.8838C78.286 59.551 70.8323 59.0852 69.7675 59.0852C69.4347 59.0852 67.172 59.0186 66.7061 59.0186C65.1754 59.0186 63.911 60.2831 63.911 61.8138C63.911 61.8803 63.911 62.0134 63.911 62.08C63.911 65.341 63.911 71.7965 63.911 73.1275C63.911 73.2606 63.7113 73.2606 63.6447 73.2606C63.5782 73.2606 63.3785 73.2606 63.3785 73.1275C63.3785 71.7299 63.3785 65.1413 63.3785 62.0134C63.3785 61.9469 63.3785 61.8803 63.3785 61.8138C63.3785 60.2831 62.1141 59.0186 60.5834 59.0186C60.051 58.9521 57.7882 59.0852 57.522 59.0852C56.4572 59.0852 49.0035 59.551 46.0752 59.8838C45.077 60.0169 42.2818 60.4162 41.3501 60.6824C40.618 60.8821 39.9525 61.1483 39.2204 61.5476C37.956 62.2796 37.956 63.411 38.0225 64.2762C38.0891 64.9417 38.2222 65.8069 38.3553 66.3393C38.4218 66.5389 38.9542 69.0013 39.6863 70.532C40.1522 71.5968 40.8842 72.6616 41.217 72.9944C42.0156 73.8596 43.6128 74.7247 44.478 75.124C45.0104 75.3237 45.7425 75.6564 46.408 75.9226C46.6742 75.9892 47.2066 76.1889 48.0052 76.5216C49.2697 76.9209 52.8634 78.1188 57.1227 78.7843C60.4503 79.2502 63.3785 79.2502 63.7778 79.2502C64.1106 79.2502 67.1054 79.2502 70.3664 78.7843C74.6257 78.1854 78.286 76.9875 79.4839 76.5216C80.2826 76.2554 80.815 76.0557 81.0812 75.9226C81.7467 75.6564 82.4787 75.3902 83.0112 75.124C83.9429 74.7247 85.4735 73.9261 86.2722 72.9944C86.6715 72.5951 87.337 71.5968 87.8028 70.532C88.4684 69.0013 89.0673 66.5389 89.1339 66.3393C89.267 65.8734 89.4001 65.0082 89.4666 64.2762C89.4001 63.411 89.4001 62.2796 88.1356 61.5476ZM78.5522 65.5407C78.3526 66.8051 78.0198 68.0696 77.2877 69.7999C76.356 72.1292 75.3578 73.3937 74.2929 74.3254C72.1633 75.9892 68.9688 76.2554 65.3751 76.5216C64.4434 76.5882 63.6447 76.5882 63.6447 76.5882C63.6447 76.5882 62.7796 76.5882 61.9144 76.5216C58.3206 76.322 55.0596 75.9892 52.9965 74.3254C51.9317 73.3937 50.9335 72.1292 50.0017 69.7999C49.2697 68.0696 49.0035 66.8051 48.7373 65.5407C48.6042 64.6089 48.2714 63.0783 50.9335 62.8786C51.7321 62.8121 55.6586 62.4793 57.1227 62.4793C57.7217 62.4793 58.7865 62.6124 59.1193 64.0765C59.3189 64.6755 59.5186 66.2727 59.5186 66.3393C59.5851 67.0713 59.9844 70.7982 59.9844 74.4585C60.051 74.7913 60.2506 74.9244 60.5168 74.9909C61.6482 75.1906 63.7113 75.2571 63.7113 75.2571C63.7113 75.2571 65.7744 75.1906 66.9058 74.9909C67.172 74.9244 67.3716 74.8578 67.4382 74.4585C67.4382 70.7982 67.8375 67.0713 67.904 66.3393C67.904 66.2727 68.1037 64.6755 68.3033 64.0765C68.6361 62.6124 69.7009 62.4793 70.2999 62.4793C71.764 62.4793 75.6905 62.7455 76.4891 62.8786C79.0181 63.1448 78.7519 64.6089 78.5522 65.5407Z" fill="white"/>
<path fill-rule="evenodd" clip-rule="evenodd" d="M102.843 63.81C102.843 63.81 102.577 60.6155 99.1165 60.4824H98.2514H93.5928V67.6034H98.1848H98.5176C98.7838 67.67 102.71 67.7365 102.843 63.81ZM98.1848 65.9396C97.9186 65.9396 97.7189 65.9396 97.7189 65.9396H96.1883V62.0131H97.7189C97.7189 62.0131 97.9186 62.0131 98.1848 62.0131C98.9169 62.1462 100.314 62.5455 100.248 63.8765C100.248 65.4738 98.9169 65.8731 98.1848 65.9396Z" fill="white"/>
<path fill-rule="evenodd" clip-rule="evenodd" d="M146.9 59.9502H146.834C144.305 59.9502 142.175 61.4809 141.842 63.4774C141.576 61.5474 139.513 59.9502 136.984 59.9502H136.851C134.855 59.9502 133.191 60.8819 132.326 62.2129L133.124 60.4826H130.595L128.665 64.875L127.401 62.0133L128.066 60.4826H124.672L125.404 61.8802L123.874 64.875L122.143 60.4826H112.493V67.6036L109.166 60.4826H105.106L101.779 67.6036H104.441L107.236 61.8802L109.033 65.9398H105.572L106.57 67.6036H112.493H120.147V66.0064H115.288V64.8084H119.614V63.2778H115.288V62.0798H120.346L122.676 67.6701H124.672L126.336 64.5422L128 67.6701H129.863L131.993 63.0116C131.926 63.3443 131.793 63.6771 131.793 64.0098C131.793 66.206 134.056 68.0694 136.785 68.0694H136.851C139.313 68.0029 141.443 66.4722 141.709 64.4757C141.976 66.4722 144.105 68.0694 146.701 68.0694H146.767C149.496 68.0029 151.692 66.206 151.692 64.0098C151.825 61.8136 149.629 60.0167 146.9 59.9502ZM136.984 66.6053C135.653 66.6053 134.588 65.4739 134.588 64.0764C134.588 62.6788 135.653 61.5474 136.984 61.5474C138.315 61.5474 139.38 62.6788 139.38 64.0764C139.38 65.4739 138.315 66.6053 136.984 66.6053ZM146.9 66.6053C145.569 66.6053 144.438 65.4739 144.438 64.0764C144.438 62.6788 145.503 61.5474 146.834 61.5474C148.165 61.5474 149.296 62.6788 149.296 64.0764C149.363 65.4739 148.231 66.6053 146.9 66.6053Z" fill="white"/>
<path d="M119.548 75.2569C119.548 75.8558 119.082 76.3217 118.483 76.3217H117.218C116.619 76.3217 116.154 75.8558 116.154 75.2569V70.5317H113.625V74.8576C113.625 76.8541 115.288 77.9189 117.218 77.9189H118.483C120.479 77.9189 122.077 76.8541 122.077 74.8576V70.5317H119.415V75.2569H119.548Z" fill="white"/>
<path d="M140.511 70.3984H137.65L133.923 73.7926V70.3984H131.394V77.5194H133.923V73.7926L137.583 77.5194H140.378L136.784 73.8591L140.511 70.3984Z" fill="white"/>
<path d="M148.431 72.395V72.2619C148.431 71.9292 148.364 71.5964 148.165 71.3302C148.032 71.064 147.765 70.7978 147.499 70.5981C147.233 70.3985 146.9 70.2654 146.568 70.1323C146.235 69.9992 145.836 69.9326 145.37 69.9326H144.305H143.906H142.708C142.308 69.9326 141.909 69.9992 141.51 70.1323C141.177 70.2654 140.844 70.3985 140.578 70.5981C140.312 70.7978 140.112 71.064 139.912 71.3302C139.779 71.5964 139.646 71.9292 139.646 72.2619V72.395C139.646 72.7278 139.713 73.0605 139.912 73.3267C140.046 73.5929 140.312 73.8591 140.578 74.0588C140.844 74.2585 141.177 74.3916 141.51 74.5247C141.842 74.6578 142.242 74.6578 142.641 74.6578H143.839H144.238H144.904C145.17 74.6578 145.37 74.7243 145.569 74.8574C145.702 74.9905 145.836 75.1236 145.836 75.2567V75.7891C145.836 75.9222 145.769 76.0553 145.569 76.1884C145.37 76.3215 145.17 76.3881 144.904 76.3881H144.238H143.839H143.04C142.774 76.3881 142.574 76.3215 142.441 76.1884C142.242 76.0553 142.242 75.9222 142.242 75.8557V75.2567H139.646V75.656C139.646 75.9888 139.713 76.3215 139.912 76.5877C140.046 76.8539 140.312 77.1201 140.578 77.3198C140.844 77.5195 141.177 77.6526 141.51 77.7857C141.842 77.9188 142.242 77.9853 142.708 77.9853H143.906H144.305H145.37C145.769 77.9853 146.168 77.9188 146.568 77.7857C146.9 77.6526 147.233 77.5195 147.499 77.2533C147.765 77.0536 147.965 76.7874 148.165 76.5212C148.298 76.255 148.431 75.9222 148.431 75.5895V75.4564C148.431 75.1236 148.364 74.8574 148.165 74.5247C148.032 74.2584 147.765 73.9922 147.499 73.7926C147.233 73.5929 146.9 73.3933 146.568 73.2602C146.235 73.1271 145.836 73.0605 145.37 73.0605H144.305H143.906H143.04C142.774 73.0605 142.574 72.994 142.441 72.8609C142.242 72.7278 142.242 72.5281 142.242 72.4616V71.9957C142.242 71.9292 142.242 71.7961 142.441 71.6629C142.641 71.5298 142.841 71.4633 143.04 71.4633H143.906H144.305H144.97C145.237 71.4633 145.436 71.5298 145.569 71.6629C145.769 71.7961 145.769 71.9292 145.769 71.9957V72.3285H148.431V72.395Z" fill="white"/>
<path d="M127.201 76.5213C125.87 76.5213 124.739 75.39 124.739 73.9924C124.739 72.5948 125.87 71.4634 127.201 71.4634C128.133 71.4634 128.931 71.9959 129.397 72.7945L131.394 71.6631C130.462 70.5983 128.998 69.8662 127.268 69.8662C124.473 69.8662 122.276 71.7296 122.276 73.9258C122.276 76.1886 124.539 77.9855 127.268 77.9855C129.065 77.9855 130.595 77.2534 131.46 76.122L129.397 75.0572C128.931 75.9224 128.133 76.5213 127.201 76.5213Z" fill="white"/>
<path d="M95.1234 71.9957H98.451V77.5194H101.246V71.9957H104.441V70.3984H95.1234V71.9957Z" fill="white"/>
<path d="M113.625 72.9939C113.625 71.5964 112.294 70.3984 110.896 70.3984H106.903H104.441V77.5194H106.903V71.9291H110.031C110.563 71.9291 111.096 72.395 111.096 72.9939C111.096 73.5929 110.563 74.0588 110.031 74.0588H108.899H107.435L110.231 77.5194H113.092L111.495 75.5229C112.693 75.2567 113.625 74.1919 113.625 72.9939Z" fill="white"/>
</svg>
