<svg width="190" height="138" viewBox="0 0 190 138" fill="none" xmlns="http://www.w3.org/2000/svg">
<path d="M128.457 55.3164C128.217 55.3164 128.217 55.1963 128.097 54.1154C127.977 51.4732 126.055 46.6691 123.293 44.0269C122.933 43.6666 122.452 43.6666 122.933 44.3872C123.653 45.4681 126.296 49.1912 126.296 54.1154C126.296 63.7234 117.048 72.4908 102.516 75.3732C101.315 75.6134 101.074 75.2531 102.396 74.8928C108.401 73.3315 119.21 69.6084 123.293 60.3606C125.575 55.0762 121.852 54.7159 120.291 54.5958C116.567 54.2355 97.5916 54.5958 94.9493 54.5958C92.3071 54.5958 73.3312 54.3556 69.6081 54.7159C68.0468 54.836 64.3236 55.1963 66.6055 60.4807C70.689 69.8486 81.6182 73.4516 87.6232 75.0129C88.8242 75.3732 88.584 75.7335 87.5031 75.4933C72.9709 72.6109 63.7231 63.8435 63.7231 54.2355C63.7231 49.4314 66.3653 45.5882 67.086 44.5073C67.5664 43.7867 67.086 43.7867 66.7256 44.147C64.0834 46.7892 62.1618 51.5933 62.0417 54.2355C62.0417 55.3164 61.9216 55.4365 61.6814 55.4365C61.4412 55.4365 61.4412 54.836 61.4412 54.2355C61.9216 41.9852 76.5739 33.8183 87.383 32.8575C88.8242 32.7374 88.8242 33.2178 87.9835 33.3379C86.182 33.8183 73.091 36.5807 67.6865 46.0686C64.9241 50.8727 65.7648 52.6742 70.2086 53.1546C71.2895 53.2747 78.3754 53.3948 95.0694 53.3948C111.643 53.3948 118.849 53.1546 119.93 53.0345C124.374 52.5541 125.215 50.7526 122.452 45.9485C117.048 36.4606 103.957 33.6982 102.035 33.2178C101.195 32.9776 101.074 32.6173 102.636 32.7374C113.445 33.6982 128.217 41.8651 128.698 54.1154C128.698 54.7159 128.698 55.3164 128.457 55.3164ZM95.0694 52.3139C99.3931 52.3139 116.087 52.5541 118.609 50.6325C118.729 50.5124 118.849 50.3923 119.21 50.6325C119.57 50.7526 120.411 51.233 120.531 51.4732C120.771 51.7134 120.531 51.8335 120.411 51.9536C118.97 52.5541 115.126 53.0345 95.0694 53.0345C75.1327 53.0345 71.1694 52.5541 69.7282 51.9536C69.6081 51.9536 69.3679 51.8335 69.6081 51.4732C69.7282 51.233 70.5689 50.7526 70.9292 50.6325C71.2895 50.5124 71.4096 50.5124 71.5297 50.6325C73.9317 52.6742 90.7458 52.3139 95.0694 52.3139ZM101.915 32.0168C97.9519 31.7766 97.7117 34.1786 99.9936 34.7791C100.714 35.0193 112.484 38.3822 116.207 44.7475C118.97 49.5515 115.607 50.7526 113.205 50.9928C111.043 51.233 100.594 51.5933 94.9493 51.5933C89.3046 51.5933 78.8558 51.3531 76.694 50.9928C74.292 50.7526 70.9292 49.5515 73.6915 44.7475C77.4146 38.3822 89.1845 35.0193 89.9051 34.7791C92.187 34.1786 91.9468 31.7766 87.9835 32.0168C72.6106 33.0977 60 44.0269 60 54.5958C60 65.1647 72.6106 76.0938 88.2237 77.1747C92.187 77.4149 92.4272 75.0129 90.1453 74.4124C89.4247 74.1722 77.6548 70.8094 73.9317 64.444C71.1694 59.64 74.5322 58.439 76.9342 58.1988C79.096 57.9586 89.5448 57.5983 95.1896 57.5983C100.834 57.5983 111.283 57.8385 113.445 58.1988C115.847 58.439 119.21 59.64 116.447 64.444C112.724 70.8094 100.954 74.1722 100.234 74.4124C97.7117 75.0129 97.9519 77.4149 101.915 77.0546C117.408 75.9737 130.139 65.1647 130.139 54.4757C130.139 44.0269 117.408 33.0977 101.915 32.0168Z" fill="white"/>
<path d="M114.286 92.0671C114.286 92.1872 114.286 92.3073 114.406 92.4274C114.526 92.5475 114.646 92.6676 114.766 92.7877C114.886 92.9078 115.006 92.9078 115.246 92.9078C116.928 93.0279 118.729 93.0279 120.411 92.9078C120.531 92.9078 120.771 92.7877 120.891 92.7877C121.011 92.6676 121.131 92.5475 121.251 92.4274C121.372 92.3073 121.372 92.1872 121.372 92.0671C121.372 91.5867 121.492 91.2263 121.372 90.7459C121.372 90.2655 121.372 89.9052 121.251 89.4248C121.251 89.3047 121.251 89.1846 121.131 89.0645C121.131 88.9444 121.011 88.8243 120.891 88.8243C120.771 88.8243 120.771 88.7042 120.651 88.7042C120.531 88.5841 120.291 88.5841 120.05 88.5841C118.489 88.464 116.808 88.464 115.246 88.5841C115.006 88.5841 114.886 88.7042 114.646 88.7042C114.526 88.7042 114.526 88.8243 114.406 88.8243C114.286 88.9444 114.286 88.9444 114.165 89.0645C114.045 89.1846 114.045 89.3047 114.045 89.4248C114.045 89.9052 113.925 90.2655 113.925 90.7459C114.165 91.2263 114.165 91.7068 114.286 92.0671ZM122.212 86.3022C122.813 86.4223 123.293 86.5424 123.894 86.6625C124.134 86.7826 124.374 86.9027 124.494 87.0228C124.734 87.263 124.975 87.5032 125.095 87.7434C125.335 88.1037 125.455 88.464 125.455 88.8243C125.575 89.5449 125.575 90.1454 125.575 90.866C125.575 91.7068 125.575 92.5475 125.335 93.3882C125.335 93.7485 125.095 93.9887 124.975 94.349C124.854 94.5892 124.614 94.7093 124.494 94.9495C124.374 95.0696 124.134 95.1897 124.014 95.3098C123.533 95.55 123.053 95.6701 122.573 95.6701C121.011 95.7902 119.45 95.9103 117.889 95.9103C116.327 95.9103 114.766 95.7902 113.205 95.6701C112.724 95.6701 112.244 95.55 111.763 95.3098C111.523 95.1897 111.403 95.0696 111.283 94.9495C111.043 94.8294 110.923 94.5892 110.803 94.349C110.562 94.1088 110.442 93.7485 110.442 93.3882C110.322 92.5475 110.202 91.8269 110.202 90.9862C110.202 90.2655 110.322 89.5449 110.322 88.9444C110.442 88.5841 110.562 88.2238 110.683 87.8635C110.803 87.6233 111.043 87.3831 111.283 87.1429C111.884 86.6625 112.724 86.4223 113.565 86.3022C115.006 86.1821 116.447 86.062 117.889 86.062C119.21 86.062 120.651 86.1821 122.212 86.3022Z" fill="white"/>
<path d="M97.3514 91.3465C98.5524 92.0671 99.7534 92.7877 100.954 93.5084C101.315 93.7486 101.555 93.9888 101.795 94.3491C101.915 94.4692 101.915 94.5893 102.035 94.7094C102.035 94.8295 102.155 94.9496 102.155 95.0697C102.155 95.1898 102.275 95.1898 102.275 95.3099H102.396C103.597 95.3099 104.918 95.3099 106.119 95.3099C106.239 95.3099 106.239 95.3099 106.359 95.1898C106.359 95.0697 106.479 95.0697 106.479 94.9496C106.479 92.3073 106.479 89.6651 106.479 87.0229C106.479 86.9028 106.479 86.9028 106.359 86.7827C106.359 86.7827 106.239 86.6626 106.119 86.6626C104.918 86.6626 103.717 86.6626 102.636 86.6626C102.516 86.6626 102.516 86.6626 102.396 86.7827C102.275 86.9028 102.275 86.9028 102.275 87.0229C102.275 87.6234 102.275 88.2239 102.275 88.8244C102.275 88.9445 102.275 89.0646 102.155 89.1847C102.155 89.3048 102.155 89.3048 102.035 89.4249L101.915 89.545L101.795 89.6651C101.675 89.6651 101.555 89.6651 101.435 89.6651C101.315 89.6651 101.195 89.6651 101.074 89.545C100.954 89.545 100.834 89.4249 100.714 89.3048C99.3931 88.4641 97.9519 87.7435 96.5106 87.143C95.9101 86.9028 95.3096 86.7827 94.589 86.7827C93.6282 86.7827 92.6674 86.7827 91.7066 86.7827C91.5865 86.7827 91.5865 86.7827 91.4664 86.9028C91.3463 87.0229 91.3463 87.0229 91.3463 87.143C91.3463 89.7852 91.3463 92.4274 91.3463 95.0697C91.3463 95.1898 91.3463 95.1898 91.4664 95.3099C91.4664 95.43 91.5865 95.43 91.7066 95.43C92.9076 95.43 94.1086 95.43 95.3096 95.43C95.4297 95.43 95.4297 95.43 95.5498 95.3099C95.6699 95.1898 95.6699 95.1898 95.6699 95.0697C95.6699 93.9887 95.6699 93.0279 95.79 91.947C95.79 91.8269 95.79 91.5867 95.9101 91.4666C95.9101 91.3465 95.9101 91.3465 96.0302 91.2264C96.1503 91.1063 96.1503 91.1063 96.2704 90.9862C96.3905 90.9862 96.5107 90.9862 96.6308 90.9862C96.7509 90.9862 96.871 90.9862 96.9911 91.1063C97.1112 91.1063 97.2313 91.2264 97.3514 91.3465Z" fill="white"/>
<path d="M83.2995 95.3099C83.1794 95.3099 83.1794 95.3099 83.0593 95.1898C83.0593 95.0697 82.9392 95.0697 82.9392 94.9496C82.9392 92.3073 82.9392 89.6651 82.9392 87.0229C82.9392 86.9028 82.9392 86.9028 83.0593 86.7827C83.0593 86.7827 83.1794 86.6626 83.2995 86.6626C84.6206 86.6626 85.9417 86.6626 87.2628 86.6626C87.3829 86.6626 87.3829 86.6626 87.503 86.7827C87.6231 86.9028 87.6231 86.9028 87.6231 87.0229C87.6231 89.6651 87.6231 92.3073 87.6231 94.9496C87.6231 95.0697 87.6231 95.0697 87.503 95.1898C87.503 95.3099 87.3829 95.3099 87.2628 95.3099C85.9417 95.3099 84.6206 95.3099 83.2995 95.3099Z" fill="white"/>
<path d="M64.804 95.3099C64.6839 95.3099 64.6839 95.3099 64.5638 95.1898C64.4437 95.0697 64.4437 95.0697 64.4437 94.9496C64.4437 92.3073 64.4437 89.6651 64.4437 87.0229C64.4437 86.9028 64.4437 86.9028 64.5638 86.7827C64.6839 86.7827 64.6839 86.6626 64.804 86.6626C66.005 86.6626 67.206 86.6626 68.4071 86.6626C68.5272 86.6626 68.5272 86.6626 68.6473 86.7827C68.6473 86.7827 68.7674 86.9028 68.7674 87.0229C68.7674 87.5033 68.7674 88.1038 68.8875 88.5842C68.8875 88.8244 69.0076 88.9445 69.1277 89.0646C69.2478 89.1847 69.488 89.3048 69.7282 89.3048C71.1694 89.3048 72.4905 89.3048 73.9317 89.3048C74.1719 89.3048 74.292 89.1847 74.5322 89.0646C74.6523 88.9445 74.7724 88.7043 74.7724 88.5842C74.7724 88.1038 74.8925 87.5033 74.8925 87.0229C74.8925 86.9028 74.8925 86.9028 75.0126 86.7827C75.0126 86.7827 75.1327 86.6626 75.2528 86.6626C76.4538 86.6626 77.6548 86.6626 78.8558 86.6626C78.9759 86.6626 78.9759 86.6626 79.096 86.7827C79.2161 86.9028 79.2161 86.9028 79.2161 87.0229C79.2161 89.6651 79.2161 92.3073 79.2161 94.9496C79.2161 95.0697 79.2161 95.0697 79.096 95.1898C78.9759 95.3099 78.9759 95.3099 78.8558 95.3099C77.6548 95.3099 76.4538 95.3099 75.2528 95.3099C75.1327 95.3099 75.1327 95.3099 75.0126 95.1898C75.0126 95.1898 74.8925 95.0697 74.8925 94.9496C74.8925 94.3491 74.8925 93.7485 74.7724 93.148C74.7724 92.9078 74.6523 92.7877 74.5322 92.6676C74.4121 92.5475 74.1719 92.4274 73.9317 92.4274C72.4905 92.4274 71.1694 92.4274 69.7282 92.4274C69.488 92.4274 69.3679 92.5475 69.1277 92.6676C69.0076 92.7877 68.8875 93.0279 68.8875 93.148C68.8875 93.7485 68.7674 94.3491 68.7674 94.9496C68.7674 95.0697 68.7674 95.0697 68.6473 95.1898C68.6473 95.3099 68.5272 95.3099 68.4071 95.3099C67.206 95.3099 66.005 95.3099 64.804 95.3099Z" fill="white"/>
<path d="M66.7257 102.636L66.1252 100.955L65.5246 102.636H66.7257ZM65.885 100.354H66.4855L67.9267 104.197H67.3262L66.9659 102.996H65.4045L65.0442 104.197H64.5638L65.885 100.354Z" fill="white"/>
<path d="M72.2502 100.354V100.834H70.9291V104.197H70.3286V100.834H69.1276V100.354H72.2502Z" fill="white"/>
<path d="M73.8116 103.597C73.9317 103.356 73.9317 103.116 73.9317 102.756C73.9317 102.516 73.9317 102.276 73.8116 102.155C73.6915 101.915 73.4512 101.795 73.0909 101.795C72.8507 101.795 72.6105 101.915 72.4904 102.155C72.3703 102.396 72.2502 102.636 72.2502 102.996C72.2502 103.236 72.3703 103.597 72.4904 103.717C72.6105 103.957 72.8507 103.957 73.0909 103.957C73.4512 103.957 73.6915 103.837 73.8116 103.597ZM74.0517 101.675C74.292 101.915 74.4121 102.276 74.4121 102.756C74.4121 103.236 74.292 103.597 74.0517 103.837C73.8115 104.077 73.4512 104.317 73.0909 104.317C72.7306 104.317 72.3703 104.197 72.1301 103.957C71.8899 103.717 71.7698 103.356 71.7698 102.876C71.7698 102.396 71.8899 102.035 72.1301 101.795C72.3703 101.555 72.7306 101.435 73.0909 101.435C73.4512 101.315 73.8115 101.435 74.0517 101.675Z" fill="white"/>
<path d="M76.8141 101.435H77.2945C77.1744 101.675 77.0543 102.036 76.8141 102.636C76.694 103.116 76.4538 103.477 76.3337 103.837C76.0935 104.558 75.8533 105.038 75.7332 105.158C75.6131 105.278 75.3729 105.398 75.1327 105.398C75.0126 105.398 75.0126 105.398 75.0126 105.398H74.8925V104.918C75.0126 104.918 75.0126 104.918 75.0126 104.918H75.1327C75.2528 104.918 75.2528 104.918 75.3729 104.918L75.493 104.798C75.493 104.798 75.493 104.678 75.6131 104.558C75.6131 104.438 75.7332 104.317 75.7332 104.317L74.7724 101.435H75.2528L75.9734 103.717L76.8141 101.435Z" fill="white"/>
<path d="M79.4563 103.597C79.5764 103.356 79.5764 103.116 79.5764 102.756C79.5764 102.516 79.5764 102.276 79.4563 102.155C79.3362 101.915 79.096 101.795 78.7357 101.795C78.4955 101.795 78.2553 101.915 78.1352 102.155C78.0151 102.396 77.895 102.636 77.895 102.996C77.895 103.236 78.0151 103.597 78.1352 103.717C78.2553 103.957 78.4955 103.957 78.7357 103.957C79.096 103.957 79.3362 103.837 79.4563 103.597ZM79.6965 101.675C79.9367 101.915 80.0568 102.276 80.0568 102.756C80.0568 103.236 79.9367 103.597 79.6965 103.837C79.4563 104.077 79.096 104.317 78.7357 104.317C78.3754 104.317 78.0151 104.197 77.7749 103.957C77.5347 103.717 77.4146 103.356 77.4146 102.876C77.4146 102.396 77.5347 102.035 77.7749 101.795C78.0151 101.555 78.3754 101.435 78.7357 101.435C79.2161 101.315 79.4563 101.435 79.6965 101.675Z" fill="white"/>
<path d="M80.7774 100.594H81.2578V101.435H81.7382V101.795H81.2578V103.597C81.2578 103.717 81.2578 103.717 81.3779 103.837C81.3779 103.837 81.498 103.837 81.6181 103.837C81.6181 103.837 81.6181 103.837 81.7382 103.837C81.7382 103.837 81.7382 103.837 81.8583 103.837V104.197H81.7382C81.7382 104.197 81.6181 104.197 81.498 104.197C81.2578 104.197 81.1377 104.197 81.0176 104.077C80.8975 103.957 80.8975 103.837 80.8975 103.597V101.795H80.5372V101.435H80.8975V100.594H80.7774Z" fill="white"/>
<path d="M82.699 103.837C82.8191 103.957 82.9392 103.957 83.0593 103.957C83.1794 103.957 83.4196 103.957 83.5397 103.837C83.7799 103.717 83.9 103.477 83.9 103.237V102.876C83.9 102.876 83.7799 102.996 83.6598 102.996C83.5397 102.996 83.5397 102.996 83.4196 102.996H83.1794C83.0593 102.996 82.9392 102.996 82.8191 103.116C82.699 103.237 82.5789 103.357 82.5789 103.477C82.4588 103.597 82.5789 103.717 82.699 103.837ZM83.6598 102.516C83.7799 102.516 83.9 102.516 83.9 102.396C83.9 102.396 83.9 102.276 83.9 102.156C83.9 102.036 83.9 101.915 83.7799 101.795C83.6598 101.675 83.5397 101.675 83.2995 101.675C83.0593 101.675 82.9392 101.795 82.8191 101.915C82.8191 102.036 82.699 102.156 82.699 102.276H82.2186C82.2186 101.915 82.3387 101.675 82.5789 101.555C82.8191 101.435 83.0593 101.315 83.2995 101.315C83.6598 101.315 83.9 101.435 84.1402 101.555C84.3804 101.675 84.5005 101.915 84.5005 102.156V103.717V103.837H84.6206C84.6206 103.837 84.6206 103.837 84.7407 103.837C84.7407 103.837 84.7407 103.837 84.8608 103.837V104.197C84.7407 104.197 84.7407 104.197 84.7407 104.197H84.6206C84.5005 104.197 84.3804 104.197 84.2603 104.077C84.2603 103.957 84.1402 103.957 84.1402 103.837C84.0201 103.957 83.9 104.077 83.7799 104.197C83.5397 104.317 83.4196 104.317 83.1794 104.317C82.9392 104.317 82.699 104.197 82.5789 104.077C82.4588 103.957 82.3387 103.717 82.3387 103.477C82.3387 103.237 82.4588 102.996 82.5789 102.876C82.699 102.756 82.9392 102.636 83.1794 102.636L83.6598 102.516Z" fill="white"/>
<path d="M89.3046 100.474C89.6649 100.714 89.9051 101.075 90.0252 101.555H89.5448C89.4247 101.315 89.3046 101.075 89.1845 100.954C88.9443 100.834 88.704 100.714 88.4638 100.714C88.1035 100.714 87.8633 100.834 87.6231 101.075C87.3829 101.315 87.2628 101.795 87.2628 102.276C87.2628 102.756 87.3829 103.116 87.503 103.356C87.7432 103.597 87.9834 103.837 88.4638 103.837C88.8242 103.837 89.0644 103.717 89.3046 103.477C89.5448 103.236 89.6649 102.996 89.6649 102.516H88.4638V102.035H90.1453V104.077H89.785L89.5448 103.717C89.4247 103.957 89.1845 104.077 89.0644 104.077C88.8242 104.197 88.584 104.317 88.2236 104.317C87.7432 104.317 87.3829 104.197 87.0226 103.837C86.6623 103.477 86.5422 102.996 86.5422 102.276C86.5422 101.675 86.6623 101.075 87.0226 100.714C87.3829 100.354 87.7432 100.114 88.3437 100.114C88.7041 100.234 88.9443 100.354 89.3046 100.474Z" fill="white"/>
<path d="M90.7458 101.435H91.2262V101.915C91.2262 101.795 91.3463 101.675 91.4664 101.555C91.5865 101.435 91.8267 101.315 91.9468 101.315C91.9468 101.315 91.9468 101.315 92.0669 101.315V101.795C92.0669 101.795 92.0669 101.795 91.9468 101.795C91.9468 101.795 91.9468 101.795 91.8267 101.795C91.5865 101.795 91.4664 101.915 91.2262 102.036C91.1061 102.156 90.986 102.396 90.986 102.516V104.077H90.7458V101.435Z" fill="white"/>
<path d="M94.3488 103.597C94.4689 103.356 94.4689 103.116 94.4689 102.756C94.4689 102.516 94.4689 102.276 94.3488 102.155C94.2287 101.915 93.9885 101.795 93.6282 101.795C93.388 101.795 93.1478 101.915 93.0277 102.155C92.9076 102.396 92.7875 102.636 92.7875 102.996C92.7875 103.236 92.9076 103.597 93.0277 103.717C93.1478 103.957 93.388 103.957 93.6282 103.957C93.9885 103.957 94.2287 103.837 94.3488 103.597ZM94.589 101.675C94.8292 101.915 94.9493 102.276 94.9493 102.756C94.9493 103.236 94.8292 103.597 94.589 103.837C94.3488 104.077 93.9885 104.317 93.6282 104.317C93.2679 104.317 92.9076 104.197 92.6674 103.957C92.4272 103.717 92.3071 103.356 92.3071 102.876C92.3071 102.396 92.4272 102.035 92.6674 101.795C92.9076 101.555 93.2679 101.435 93.6282 101.435C94.1086 101.315 94.3488 101.435 94.589 101.675Z" fill="white"/>
<path d="M96.0302 101.435V103.237C96.0302 103.357 96.0302 103.477 96.1503 103.597C96.2704 103.717 96.3905 103.837 96.6307 103.837C96.991 103.837 97.1111 103.717 97.2312 103.357C97.3513 103.237 97.3513 102.996 97.3513 102.756V101.435H97.8317V104.197H97.3513V103.837C97.2312 103.957 97.2312 104.077 97.1111 104.077C96.991 104.197 96.7508 104.317 96.5106 104.317C96.1503 104.317 95.79 104.197 95.6699 103.957C95.5498 103.717 95.5498 103.597 95.5498 103.357V101.435H96.0302Z" fill="white"/>
<path d="M100.234 103.597C100.354 103.357 100.474 103.116 100.474 102.756C100.474 102.516 100.474 102.396 100.354 102.156C100.234 101.795 99.9935 101.675 99.6332 101.675C99.2729 101.675 99.0327 101.795 98.9126 102.156C98.7925 102.276 98.7925 102.516 98.7925 102.876C98.7925 103.116 98.7925 103.237 98.9126 103.477C99.0327 103.717 99.2729 103.957 99.6332 103.957C99.9935 103.837 100.114 103.837 100.234 103.597ZM98.5523 101.435H99.0327V101.795C99.1528 101.675 99.2729 101.555 99.393 101.555C99.5131 101.435 99.7533 101.435 99.9935 101.435C100.354 101.435 100.594 101.555 100.834 101.795C101.074 102.036 101.195 102.396 101.195 102.876C101.195 103.477 101.074 103.957 100.714 104.197C100.474 104.317 100.234 104.438 99.9935 104.438C99.7533 104.438 99.6332 104.438 99.5131 104.317C99.393 104.317 99.393 104.197 99.2729 104.077V105.518H98.7925V101.435H98.5523Z" fill="white"/>
<path d="M105.758 100.594C105.999 100.834 106.119 101.195 106.239 101.435H105.758C105.758 101.195 105.638 100.954 105.398 100.834C105.278 100.714 105.038 100.594 104.678 100.594C104.317 100.594 103.957 100.714 103.837 100.954C103.597 101.195 103.476 101.675 103.476 102.155C103.476 102.636 103.597 102.996 103.837 103.236C104.077 103.477 104.317 103.597 104.798 103.597C105.158 103.597 105.518 103.477 105.638 103.116C105.758 102.996 105.879 102.756 105.879 102.516H106.359C106.359 102.876 106.119 103.236 105.879 103.477C105.638 103.837 105.158 103.957 104.678 103.957C104.197 103.957 103.837 103.837 103.597 103.597C103.236 103.236 102.996 102.636 102.996 101.915C102.996 101.315 103.116 100.834 103.476 100.474C103.837 100.114 104.197 99.8735 104.798 99.8735C105.158 100.234 105.518 100.354 105.758 100.594Z" fill="white"/>
<path d="M108.641 103.597C108.761 103.356 108.761 103.116 108.761 102.756C108.761 102.516 108.761 102.276 108.641 102.155C108.521 101.915 108.281 101.795 107.92 101.795C107.68 101.795 107.44 101.915 107.32 102.155C107.2 102.396 107.08 102.636 107.08 102.996C107.08 103.236 107.2 103.597 107.32 103.717C107.44 103.957 107.68 103.957 107.92 103.957C108.281 103.957 108.521 103.837 108.641 103.597ZM108.881 101.675C109.121 101.915 109.241 102.276 109.241 102.756C109.241 103.236 109.121 103.597 108.881 103.837C108.641 104.077 108.281 104.317 107.92 104.317C107.56 104.317 107.2 104.197 106.959 103.957C106.719 103.717 106.599 103.356 106.599 102.876C106.599 102.396 106.719 102.035 106.959 101.795C107.2 101.555 107.56 101.435 107.92 101.435C108.401 101.315 108.641 101.435 108.881 101.675Z" fill="white"/>
<path d="M109.842 101.435H110.322V101.795C110.442 101.675 110.562 101.555 110.683 101.435C110.803 101.315 111.043 101.315 111.163 101.315C111.403 101.315 111.523 101.315 111.643 101.435C111.763 101.555 111.763 101.555 111.884 101.675C112.004 101.555 112.124 101.435 112.244 101.315C112.364 101.195 112.604 101.195 112.724 101.195C113.085 101.195 113.325 101.315 113.445 101.555C113.565 101.675 113.565 101.915 113.565 102.156V104.077H113.085V102.156C113.085 101.915 113.085 101.795 112.964 101.795C112.844 101.675 112.724 101.675 112.604 101.675C112.364 101.675 112.244 101.795 112.124 101.915C112.004 102.036 111.884 102.276 111.884 102.516V104.197H111.403V102.396C111.403 102.156 111.403 102.036 111.283 102.036C111.163 101.915 111.043 101.795 110.923 101.795C110.803 101.795 110.562 101.915 110.442 102.036C110.322 102.156 110.202 102.396 110.202 102.756V104.197H109.722V101.435H109.842Z" fill="white"/>
<path d="M116.087 103.597C116.207 103.357 116.327 103.116 116.327 102.756C116.327 102.516 116.327 102.396 116.207 102.156C116.087 101.795 115.847 101.675 115.487 101.675C115.126 101.675 114.886 101.795 114.766 102.156C114.766 102.396 114.766 102.636 114.766 102.876C114.766 103.116 114.766 103.237 114.886 103.477C115.006 103.717 115.246 103.957 115.607 103.957C115.727 103.837 115.847 103.837 116.087 103.597ZM114.286 101.435H114.766V101.795C114.886 101.675 115.006 101.555 115.126 101.555C115.246 101.435 115.487 101.435 115.727 101.435C116.087 101.435 116.327 101.555 116.567 101.795C116.808 102.036 116.928 102.396 116.928 102.876C116.928 103.477 116.808 103.957 116.447 104.197C116.207 104.317 115.967 104.438 115.727 104.438C115.487 104.438 115.366 104.438 115.246 104.317C115.126 104.317 115.126 104.197 115.006 104.077V105.518H114.526V101.435H114.286Z" fill="white"/>
<path d="M117.769 103.837C117.889 103.957 118.009 103.957 118.129 103.957C118.249 103.957 118.489 103.957 118.609 103.837C118.849 103.717 118.97 103.477 118.97 103.237V102.876C118.97 102.876 118.849 102.996 118.729 102.996C118.609 102.996 118.489 102.996 118.489 102.996H118.249C118.129 102.996 118.009 102.996 117.889 103.116C117.769 103.237 117.648 103.357 117.648 103.477C117.648 103.597 117.769 103.717 117.769 103.837ZM118.849 102.516C118.97 102.516 119.09 102.516 119.09 102.396C119.09 102.396 119.09 102.276 119.09 102.156C119.09 102.036 119.09 101.915 118.97 101.795C118.849 101.675 118.729 101.675 118.489 101.675C118.249 101.675 118.129 101.795 118.009 101.915C118.009 102.036 117.889 102.156 117.889 102.276H117.408C117.408 101.915 117.528 101.675 117.769 101.555C118.009 101.435 118.249 101.315 118.489 101.315C118.849 101.315 119.09 101.435 119.33 101.555C119.57 101.675 119.69 101.915 119.69 102.156V103.717V103.837H119.81C119.81 103.837 119.81 103.837 119.93 103.837C119.93 103.837 119.93 103.837 120.05 103.837V104.197C119.93 104.197 119.93 104.197 119.93 104.197H119.81C119.69 104.197 119.57 104.197 119.45 104.077C119.45 103.957 119.33 103.957 119.33 103.837C119.21 103.957 119.09 104.077 118.97 104.197C118.729 104.317 118.609 104.317 118.369 104.317C118.129 104.317 117.889 104.197 117.769 104.077C117.648 103.957 117.528 103.717 117.528 103.477C117.528 103.237 117.648 102.996 117.769 102.876C117.889 102.756 118.129 102.636 118.369 102.636L118.849 102.516Z" fill="white"/>
<path d="M120.291 101.435H120.771V101.795C120.891 101.675 121.011 101.555 121.251 101.435C121.371 101.315 121.612 101.315 121.732 101.315C122.092 101.315 122.452 101.435 122.573 101.675C122.693 101.795 122.693 102.036 122.693 102.276V104.077H122.212V102.276C122.212 102.156 122.212 101.915 122.092 101.915C121.972 101.795 121.852 101.675 121.612 101.675C121.492 101.675 121.371 101.675 121.371 101.675C121.251 101.675 121.131 101.795 121.011 101.915C120.891 102.036 120.891 102.156 120.891 102.156C120.891 102.276 120.891 102.396 120.891 102.636V104.077H120.411V101.435H120.291Z" fill="white"/>
<path d="M124.975 101.435H125.575C125.455 101.675 125.335 102.036 125.095 102.636C124.975 103.116 124.734 103.477 124.614 103.837C124.374 104.558 124.134 105.038 124.014 105.158C123.894 105.278 123.653 105.398 123.413 105.398C123.293 105.398 123.293 105.398 123.293 105.398H123.173V104.918C123.293 104.918 123.293 104.918 123.293 104.918H123.413C123.533 104.918 123.533 104.918 123.653 104.918L123.774 104.798C123.774 104.798 123.774 104.678 123.894 104.558C123.894 104.438 124.014 104.317 124.014 104.317L122.933 101.435H123.413L124.134 103.717L124.975 101.435Z" fill="white"/>
</svg>
