<svg width="190" height="138" viewBox="0 0 190 138" fill="none" xmlns="http://www.w3.org/2000/svg">
<path d="M88.1356 61.5476C87.4035 61.1483 86.738 60.8821 86.006 60.6824C85.0742 60.4162 82.2791 59.9504 81.2808 59.8838C78.286 59.551 70.8323 59.0852 69.7675 59.0852C69.4347 59.0852 67.172 59.0186 66.7061 59.0186C65.1754 59.0186 63.911 60.2831 63.911 61.8138C63.911 61.8803 63.911 62.0134 63.911 62.08C63.911 65.341 63.911 71.7965 63.911 73.1275C63.911 73.2606 63.7113 73.2606 63.6447 73.2606C63.5782 73.2606 63.3785 73.2606 63.3785 73.1275C63.3785 71.7299 63.3785 65.1413 63.3785 62.0134C63.3785 61.9469 63.3785 61.8803 63.3785 61.8138C63.3785 60.2831 62.1141 59.0186 60.5834 59.0186C60.051 58.9521 57.7882 59.0852 57.522 59.0852C56.4572 59.0852 49.0035 59.551 46.0752 59.8838C45.077 60.0169 42.2818 60.4162 41.3501 60.6824C40.618 60.8821 39.9525 61.1483 39.2204 61.5476C37.956 62.2796 37.956 63.411 38.0225 64.2762C38.0891 64.9417 38.2222 65.8069 38.3553 66.3393C38.4218 66.5389 38.9542 69.0013 39.6863 70.532C40.1522 71.5968 40.8842 72.6616 41.217 72.9944C42.0156 73.8596 43.6128 74.7247 44.478 75.124C45.0104 75.3237 45.7425 75.6564 46.408 75.9226C46.6742 75.9892 47.2066 76.1889 48.0052 76.5216C49.2697 76.9209 52.8634 78.1188 57.1227 78.7843C60.4503 79.2502 63.3785 79.2502 63.7778 79.2502C64.1106 79.2502 67.1054 79.2502 70.3664 78.7843C74.6257 78.1854 78.286 76.9875 79.4839 76.5216C80.2826 76.2554 80.815 76.0557 81.0812 75.9226C81.7467 75.6564 82.4787 75.3902 83.0112 75.124C83.9429 74.7247 85.4735 73.9261 86.2722 72.9944C86.6715 72.5951 87.337 71.5968 87.8028 70.532C88.4684 69.0013 89.0673 66.5389 89.1339 66.3393C89.267 65.8734 89.4001 65.0082 89.4666 64.2762C89.4001 63.411 89.4001 62.2796 88.1356 61.5476ZM78.5522 65.5407C78.3526 66.8051 78.0198 68.0696 77.2877 69.7999C76.356 72.1292 75.3578 73.3937 74.2929 74.3254C72.1633 75.9892 68.9688 76.2554 65.3751 76.5216C64.4434 76.5882 63.6447 76.5882 63.6447 76.5882C63.6447 76.5882 62.7796 76.5882 61.9144 76.5216C58.3206 76.322 55.0596 75.9892 52.9965 74.3254C51.9317 73.3937 50.9335 72.1292 50.0017 69.7999C49.2697 68.0696 49.0035 66.8051 48.7373 65.5407C48.6042 64.6089 48.2714 63.0783 50.9335 62.8786C51.7321 62.8121 55.6586 62.4793 57.1227 62.4793C57.7217 62.4793 58.7865 62.6124 59.1193 64.0765C59.3189 64.6755 59.5186 66.2727 59.5186 66.3393C59.5851 67.0713 59.9844 70.7982 59.9844 74.4585C60.051 74.7913 60.2506 74.9244 60.5168 74.9909C61.6482 75.1906 63.7113 75.2571 63.7113 75.2571C63.7113 75.2571 65.7744 75.1906 66.9058 74.9909C67.172 74.9244 67.3716 74.8578 67.4382 74.4585C67.4382 70.7982 67.8375 67.0713 67.904 66.3393C67.904 66.2727 68.1037 64.6755 68.3033 64.0765C68.6361 62.6124 69.7009 62.4793 70.2999 62.4793C71.764 62.4793 75.6905 62.7455 76.4891 62.8786C79.0181 63.1448 78.7519 64.6089 78.5522 65.5407Z" fill="#0063AB"/>
<path fill-rule="evenodd" clip-rule="evenodd" d="M102.843 63.8103C102.843 63.8103 102.577 60.6158 99.1165 60.4827H98.2514H93.5928V67.6037H98.1848H98.5176C98.7838 67.6703 102.71 67.7368 102.843 63.8103ZM98.1848 65.9399C97.9186 65.9399 97.7189 65.9399 97.7189 65.9399H96.1883V62.0134H97.7189C97.7189 62.0134 97.9186 62.0134 98.1848 62.0134C98.9169 62.1465 100.314 62.5458 100.248 63.8768C100.248 65.4741 98.9169 65.8734 98.1848 65.9399Z" fill="#0063AB"/>
<path fill-rule="evenodd" clip-rule="evenodd" d="M146.9 59.9503H146.834C144.305 59.9503 142.175 61.481 141.842 63.4775C141.576 61.5475 139.513 59.9503 136.984 59.9503H136.851C134.855 59.9503 133.191 60.882 132.326 62.2131L133.124 60.4827H130.595L128.665 64.8751L127.401 62.0134L128.066 60.4827H124.672L125.404 61.8803L123.874 64.8751L122.143 60.4827H112.493V67.6037L109.166 60.4827H105.106L101.779 67.6037H104.441L107.236 61.8803L109.033 65.9399H105.572L106.57 67.6037H112.493H120.147V66.0065H115.288V64.8086H119.614V63.2779H115.288V62.08H120.346L122.676 67.6703H124.672L126.336 64.5424L128 67.6703H129.863L131.993 63.0117C131.926 63.3444 131.793 63.6772 131.793 64.0099C131.793 66.2061 134.056 68.0696 136.785 68.0696H136.851C139.313 68.003 141.443 66.4723 141.709 64.4758C141.976 66.4723 144.105 68.0696 146.701 68.0696H146.767C149.496 68.003 151.692 66.2061 151.692 64.0099C151.825 61.8138 149.629 60.0169 146.9 59.9503ZM136.984 66.6054C135.653 66.6054 134.588 65.4741 134.588 64.0765C134.588 62.6789 135.653 61.5475 136.984 61.5475C138.315 61.5475 139.38 62.6789 139.38 64.0765C139.38 65.4741 138.315 66.6054 136.984 66.6054ZM146.9 66.6054C145.569 66.6054 144.438 65.4741 144.438 64.0765C144.438 62.6789 145.503 61.5475 146.834 61.5475C148.165 61.5475 149.296 62.6789 149.296 64.0765C149.363 65.4741 148.231 66.6054 146.9 66.6054Z" fill="#0063AB"/>
<path d="M119.548 75.2572C119.548 75.8561 119.082 76.322 118.483 76.322H117.218C116.619 76.322 116.154 75.8561 116.154 75.2572V70.532H113.625V74.8579C113.625 76.8544 115.288 77.9192 117.218 77.9192H118.483C120.479 77.9192 122.077 76.8544 122.077 74.8579V70.532H119.415V75.2572H119.548Z" fill="#0063AB"/>
<path d="M140.511 70.3989H137.65L133.923 73.793V70.3989H131.394V77.5199H133.923V73.793L137.583 77.5199H140.378L136.784 73.8596L140.511 70.3989Z" fill="#0063AB"/>
<path d="M148.431 72.3954V72.2623C148.431 71.9296 148.364 71.5968 148.165 71.3306C148.032 71.0644 147.765 70.7982 147.499 70.5986C147.233 70.3989 146.9 70.2658 146.568 70.1327C146.235 69.9996 145.836 69.933 145.37 69.933H144.305H143.906H142.708C142.308 69.933 141.909 69.9996 141.51 70.1327C141.177 70.2658 140.844 70.3989 140.578 70.5986C140.312 70.7982 140.112 71.0644 139.912 71.3306C139.779 71.5968 139.646 71.9296 139.646 72.2623V72.3954C139.646 72.7282 139.713 73.061 139.912 73.3272C140.046 73.5934 140.312 73.8596 140.578 74.0592C140.844 74.2589 141.177 74.392 141.51 74.5251C141.842 74.6582 142.242 74.6582 142.641 74.6582H143.839H144.238H144.904C145.17 74.6582 145.37 74.7247 145.569 74.8578C145.702 74.9909 145.836 75.124 145.836 75.2571V75.7896C145.836 75.9227 145.769 76.0558 145.569 76.1889C145.37 76.322 145.17 76.3885 144.904 76.3885H144.238H143.839H143.04C142.774 76.3885 142.574 76.322 142.441 76.1889C142.242 76.0558 142.242 75.9227 142.242 75.8561V75.2571H139.646V75.6564C139.646 75.9892 139.713 76.322 139.912 76.5882C140.046 76.8544 140.312 77.1206 140.578 77.3202C140.844 77.5199 141.177 77.653 141.51 77.7861C141.842 77.9192 142.242 77.9857 142.708 77.9857H143.906H144.305H145.37C145.769 77.9857 146.168 77.9192 146.568 77.7861C146.9 77.653 147.233 77.5199 147.499 77.2537C147.765 77.054 147.965 76.7878 148.165 76.5216C148.298 76.2554 148.431 75.9227 148.431 75.5899V75.4568C148.431 75.124 148.364 74.8578 148.165 74.5251C148.032 74.2589 147.765 73.9927 147.499 73.793C147.233 73.5934 146.9 73.3937 146.568 73.2606C146.235 73.1275 145.836 73.061 145.37 73.061H144.305H143.906H143.04C142.774 73.061 142.574 72.9944 142.441 72.8613C142.242 72.7282 142.242 72.5285 142.242 72.462V71.9961C142.242 71.9296 142.242 71.7965 142.441 71.6634C142.641 71.5303 142.841 71.4637 143.04 71.4637H143.906H144.305H144.97C145.237 71.4637 145.436 71.5303 145.569 71.6634C145.769 71.7965 145.769 71.9296 145.769 71.9961V72.3289H148.431V72.3954Z" fill="#0063AB"/>
<path d="M127.201 76.5216C125.87 76.5216 124.739 75.3903 124.739 73.9927C124.739 72.5951 125.87 71.4637 127.201 71.4637C128.133 71.4637 128.931 71.9962 129.397 72.7948L131.394 71.6634C130.462 70.5986 128.998 69.8665 127.268 69.8665C124.473 69.8665 122.276 71.7299 122.276 73.9261C122.276 76.1889 124.539 77.9858 127.268 77.9858C129.065 77.9858 130.595 77.2537 131.46 76.1223L129.397 75.0575C128.931 75.9227 128.133 76.5216 127.201 76.5216Z" fill="#0063AB"/>
<path d="M95.1234 71.9962H98.451V77.5199H101.246V71.9962H104.441V70.3989H95.1234V71.9962Z" fill="#0063AB"/>
<path d="M113.625 72.9944C113.625 71.5968 112.294 70.3989 110.896 70.3989H106.903H104.441V77.5199H106.903V71.9296H110.031C110.563 71.9296 111.096 72.3955 111.096 72.9944C111.096 73.5934 110.563 74.0592 110.031 74.0592H108.899H107.435L110.231 77.5199H113.092L111.495 75.5234C112.693 75.2572 113.625 74.1923 113.625 72.9944Z" fill="#0063AB"/>
</svg>
