<svg width="190" height="138" viewBox="0 0 190 138" fill="none" xmlns="http://www.w3.org/2000/svg">
<path fill-rule="evenodd" clip-rule="evenodd" d="M95 89L89.2846 86.3358L88.6393 89H76.5631L72.9679 80.5317L69.3727 89H62.8277L59.1403 80.4366L55.5451 89H49L55.9138 72.8246H62.4589L66.1463 81.3881L69.7415 72.8246H76.2866L80.4349 82.7201H84.0301L95 38L105.97 82.7201H128.279L124.315 80.8172L126.804 79.0093L111.132 78.9142L113.806 72.7295H134.086L136.76 78.9142L134.271 80.722L138.327 82.625L141 88.8097H101.361L100.715 86.1455L95 89ZM95 82.1493L90.8517 80.1511L95 63.1194L99.1483 80.2463L95 82.1493Z" fill="#E6353A"/>
</svg>
